<svg width="56" height="56" viewBox="0 0 56 56" fill="none" xmlns="http://www.w3.org/2000/svg">
<path d="M17.8013 40.1313V46.898C17.7949 47.1755 17.8449 47.4515 17.9482 47.7091C18.0514 47.9668 18.2059 48.2009 18.4022 48.3971C18.5985 48.5934 18.8325 48.7479 19.0902 48.8512C19.3479 48.9544 19.6238 49.0044 19.9013 48.998H35.7913C36.0688 49.0044 36.3448 48.9544 36.6024 48.8512C36.8601 48.7479 37.0942 48.5934 37.2905 48.3971C37.4867 48.2009 37.6412 47.9668 37.7445 47.7091C37.8478 47.4515 37.8977 47.1755 37.8913 46.898V43.888H43.0013C43.2788 43.8944 43.5548 43.8444 43.8124 43.7412C44.0701 43.6379 44.3042 43.4834 44.5005 43.2871C44.6967 43.0909 44.8512 42.8568 44.9545 42.5991C45.0578 42.3415 45.1077 42.0655 45.1013 41.788V33.9947H47.808C48.998 33.9947 49.3013 33.108 48.6947 32.198L44.798 25.198V22.8647C44.8783 19.9194 44.112 17.0128 42.59 14.49C41.068 11.9671 38.8542 9.93381 36.2113 8.63135" stroke="#001E00" stroke-width="2" stroke-linecap="round" stroke-linejoin="round"/>
<path d="M19.833 25.6655C20.8627 25.6653 21.8694 25.361 22.7268 24.7907C23.5842 24.2204 24.254 23.4096 24.6522 22.4599C25.0504 21.5103 25.1592 20.4642 24.965 19.453C24.7708 18.4418 24.2822 17.5104 23.5605 16.7759C22.8389 16.0413 21.9163 15.5363 20.9087 15.3242C19.901 15.1121 18.8532 15.2024 17.8966 15.5837C16.9401 15.9651 16.1175 16.6204 15.5322 17.4676C14.9468 18.3147 14.6247 19.3159 14.6063 20.3455C14.5939 21.0397 14.7199 21.7294 14.977 22.3743C15.2342 23.0193 15.6172 23.6065 16.1038 24.1018C16.5903 24.5971 17.1707 24.9904 17.811 25.2589C18.4513 25.5274 19.1387 25.6656 19.833 25.6655V25.6655Z" stroke="#001E00" stroke-width="2" stroke-linecap="round" stroke-linejoin="round"/>
<path d="M29.1433 21.2809V19.4376L32.6667 16.4509C32.0381 14.3976 30.9258 12.5252 29.4233 10.9909L25.1067 12.6243C24.6896 12.3443 24.2529 12.0948 23.8 11.8776L23.03 7.3976C20.9326 6.86128 18.734 6.86128 16.6367 7.3976L15.8667 11.8776C15.4137 12.0948 14.9771 12.3443 14.56 12.6243L10.2433 10.9909C8.74085 12.5252 7.62859 14.3976 7 16.4509L10.5233 19.4376C10.4533 20.0422 10.4533 20.653 10.5233 21.2576L7 24.2209C7.62854 26.2811 8.74057 28.1612 10.2433 29.7043L14.56 28.0009C14.9823 28.2723 15.4185 28.5215 15.8667 28.7476L16.6367 33.2043C18.734 33.7406 20.9326 33.7406 23.03 33.2043L23.8 28.7476C24.2482 28.5215 24.6843 28.2723 25.1067 28.0009L29.4233 29.6343C30.9166 28.1112 32.0281 26.2561 32.6667 24.2209L29.1433 21.2576V21.2809Z" stroke="#001E00" stroke-width="2" stroke-linecap="round" stroke-linejoin="round"/>
</svg>
