<svg width="56" height="56" viewBox="0 0 56 56" fill="none" xmlns="http://www.w3.org/2000/svg">
<path d="M45.2214 49.0001H19.5547L23.3347 32.6667H49.0014L45.2214 49.0001Z" stroke="#001E00" stroke-width="2" stroke-linecap="round" stroke-linejoin="round"/>
<path d="M34.276 42.0001C34.9204 42.0001 35.4427 41.4777 35.4427 40.8334C35.4427 40.1891 34.9204 39.6667 34.276 39.6667C33.6317 39.6667 33.1094 40.1891 33.1094 40.8334C33.1094 41.4777 33.6317 42.0001 34.276 42.0001Z" fill="#001E00" stroke="#001E00" stroke-width="2" stroke-linecap="round" stroke-linejoin="round"/>
<path d="M22.0032 49H13.9766" stroke="#001E00" stroke-width="2" stroke-linecap="round" stroke-linejoin="round"/>
<path d="M23.4286 19.74C26.9466 19.74 29.7986 16.8881 29.7986 13.37C29.7986 9.85195 26.9466 7 23.4286 7C19.9105 7 17.0586 9.85195 17.0586 13.37C17.0586 16.8881 19.9105 19.74 23.4286 19.74Z" stroke="#001E00" stroke-width="2" stroke-linecap="round" stroke-linejoin="round"/>
<path d="M7 43.0518V40.9518C7 36.6199 8.72083 32.4654 11.7839 29.4023C14.847 26.3393 19.0015 24.6184 23.3333 24.6184H23.5433C26.6821 24.6141 29.7545 25.522 32.3867 27.2318" stroke="#001E00" stroke-width="2" stroke-linecap="round" stroke-linejoin="round"/>
</svg>
