<svg width="108" height="96" viewBox="0 0 108 96" fill="none" xmlns="http://www.w3.org/2000/svg">
<path d="M67.9383 2.06769L66.6091 0.664612V1.32923L66.683 1.47692C66.6091 1.47692 66.5353 1.47692 66.5353 1.47692H11.2983C10.1906 1.47692 9.3045 2.36307 9.3045 3.47077V69.9323L8.49219 70.2277L9.82142 71.6308C10.1906 72 10.7076 72.2215 11.2245 72.2215H65.3537C67.0522 72.2215 68.4553 70.8185 68.4553 69.12V3.39692C68.5291 2.88 68.3076 2.43692 67.9383 2.06769Z" fill="#C3D2C3"/>
<path d="M9.89619 0H65.1331C66.2408 0 67.127 0.886154 67.127 1.99385V68.8246C67.127 69.9323 66.2408 70.8185 65.1331 70.8185H9.89619C8.7885 70.8185 7.90234 69.9323 7.90234 68.8246V1.99385C7.90234 0.886154 8.7885 0 9.89619 0Z" fill="url(#paint0_linear_215_11378)"/>
<path d="M67.1265 15.0646L40.4681 13.0708L36.8496 61.5138L67.1265 63.8031V15.0646Z" fill="#9AAA97"/>
<path d="M65.1331 0H9.89619C8.7885 0 7.90234 0.886154 7.90234 1.99385V5.16923H67.127V1.99385C67.127 0.886154 66.2408 0 65.1331 0Z" fill="#E4EBE4"/>
<path d="M20.8989 13.6615H26.0681C26.2158 13.6615 26.3635 13.8092 26.3635 13.9569C26.3635 14.1046 26.2158 14.2523 26.0681 14.2523H20.8989C20.7512 14.2523 20.6035 14.1046 20.6035 13.9569C20.6774 13.8092 20.7512 13.6615 20.8989 13.6615Z" fill="#F66DBC"/>
<path d="M13.8852 13.6615H19.0545C19.2022 13.6615 19.3498 13.8092 19.3498 13.9569C19.3498 14.1046 19.2022 14.2523 19.0545 14.2523H13.8852C13.7375 14.2523 13.5898 14.1046 13.5898 13.9569C13.6637 13.8092 13.7375 13.6615 13.8852 13.6615Z" fill="#F66DBC"/>
<path d="M27.9145 13.6615H33.0838C33.2314 13.6615 33.3791 13.8092 33.3791 13.9569C33.3791 14.1046 33.2314 14.2523 33.0838 14.2523H27.9145C27.7668 14.2523 27.6191 14.1046 27.6191 13.9569C27.6191 13.8092 27.7668 13.6615 27.9145 13.6615Z" fill="#F66DBC"/>
<path d="M34.9301 13.6615H40.0994C40.2471 13.6615 40.3948 13.8092 40.3948 13.9569C40.3948 14.1046 40.2471 14.2523 40.0994 14.2523H34.9301C34.7825 14.2523 34.6348 14.1046 34.6348 13.9569C34.6348 13.8092 34.7825 13.6615 34.9301 13.6615Z" fill="#F66DBC"/>
<path d="M20.8989 61.7354H26.0681C26.2158 61.7354 26.3635 61.8831 26.3635 62.0308C26.3635 62.1785 26.2158 62.3262 26.0681 62.3262H20.8989C20.7512 62.3262 20.6035 62.1785 20.6035 62.0308C20.6774 61.8831 20.7512 61.7354 20.8989 61.7354Z" fill="#F66DBC"/>
<path d="M13.8852 61.7354H19.0545C19.2022 61.7354 19.3498 61.8831 19.3498 62.0308C19.3498 62.1785 19.2022 62.3262 19.0545 62.3262H13.8852C13.7375 62.3262 13.5898 62.1785 13.5898 62.0308C13.6637 61.8831 13.7375 61.7354 13.8852 61.7354Z" fill="#F66DBC"/>
<path d="M27.9145 61.7354H33.0838C33.2314 61.7354 33.3791 61.8831 33.3791 62.0308C33.3791 62.1785 33.2314 62.3262 33.0838 62.3262H27.9145C27.7668 62.3262 27.6191 62.1785 27.6191 62.0308C27.6191 61.8831 27.7668 61.7354 27.9145 61.7354Z" fill="#F66DBC"/>
<path d="M34.9301 61.7354H40.0994C40.2471 61.7354 40.3948 61.8831 40.3948 62.0308C40.3948 62.1785 40.2471 62.3262 40.0994 62.3262H34.9301C34.7825 62.3262 34.6348 62.1785 34.6348 62.0308C34.6348 61.8831 34.7825 61.7354 34.9301 61.7354Z" fill="#F66DBC"/>
<path d="M11.9648 19.7169V14.5477C11.9648 14.4 12.1125 14.2523 12.2602 14.2523C12.4079 14.2523 12.5556 14.4 12.5556 14.5477V19.7169C12.5556 19.8646 12.4079 20.0123 12.2602 20.0123C12.0387 20.0123 11.9648 19.8646 11.9648 19.7169Z" fill="#F66DBC"/>
<path d="M11.9648 26.7323V21.5631C11.9648 21.4154 12.1125 21.2677 12.2602 21.2677C12.4079 21.2677 12.5556 21.4154 12.5556 21.5631V26.7323C12.5556 26.88 12.4079 27.0277 12.2602 27.0277C12.0387 26.9538 11.9648 26.88 11.9648 26.7323Z" fill="#F66DBC"/>
<path d="M11.8906 33.7477V28.5784C11.8906 28.4307 12.0383 28.2831 12.186 28.2831C12.3337 28.2831 12.4814 28.4307 12.4814 28.5784V33.7477C12.4814 33.8954 12.3337 34.043 12.186 34.043C12.0383 33.9692 11.8906 33.8954 11.8906 33.7477Z" fill="#F66DBC"/>
<path d="M11.8906 40.763V35.5938C11.8906 35.4461 12.0383 35.2984 12.186 35.2984C12.3337 35.2984 12.4814 35.4461 12.4814 35.5938V40.763C12.4814 40.9107 12.3337 41.0584 12.186 41.0584C12.0383 40.9846 11.8906 40.9107 11.8906 40.763Z" fill="#F66DBC"/>
<path d="M11.9648 47.7785V42.6092C11.9648 42.4615 12.1125 42.3138 12.2602 42.3138C12.4079 42.3138 12.5556 42.4615 12.5556 42.6092V47.7785C12.5556 47.9261 12.4079 48.0738 12.2602 48.0738C12.0387 48 11.9648 47.9261 11.9648 47.7785Z" fill="#F66DBC"/>
<path d="M11.9648 54.7938V49.6246C11.9648 49.4769 12.1125 49.3292 12.2602 49.3292C12.4079 49.3292 12.5556 49.4769 12.5556 49.6246V54.7938C12.5556 54.9415 12.4079 55.0892 12.2602 55.0892C12.0387 55.0154 11.9648 54.9415 11.9648 54.7938Z" fill="#F66DBC"/>
<path d="M11.9648 61.7354V56.5661C11.9648 56.4184 12.1125 56.2708 12.2602 56.2708C12.4079 56.2708 12.5556 56.4184 12.5556 56.5661V61.7354C12.5556 61.8831 12.4079 62.0308 12.2602 62.0308C12.0387 62.0308 11.9648 61.8831 11.9648 61.7354Z" fill="#F66DBC"/>
<path d="M15.3599 2.58462C15.3599 3.17539 14.843 3.69231 14.2522 3.69231C13.6615 3.69231 13.1445 3.17539 13.1445 2.58462C13.1445 1.99385 13.5876 1.47693 14.2522 1.47693C14.9168 1.47693 15.3599 1.99385 15.3599 2.58462Z" fill="url(#paint1_radial_215_11378)"/>
<path d="M11.8892 2.58462C11.8892 3.17539 11.3723 3.69231 10.7815 3.69231C10.1908 3.69231 9.67383 3.17539 9.67383 2.58462C9.67383 1.99385 10.1908 1.47693 10.7815 1.47693C11.4461 1.47693 11.8892 1.99385 11.8892 2.58462Z" fill="url(#paint2_radial_215_11378)"/>
<path d="M49.2568 67.2738C49.4784 68.9723 49.8476 70.5969 50.2168 72.2215H61.2937L58.783 64.5415C58.0445 62.1785 55.6076 60.7754 53.1707 61.1446C50.5122 61.5877 48.7399 64.0985 49.1091 66.7569L49.2568 67.2738Z" fill="#9AAA97"/>
<path d="M68.5301 69.12V48.7385C67.8655 45.8585 67.2747 43.6431 67.2747 43.6431C66.7578 41.4277 64.5424 40.0246 62.327 40.3938C60.0378 40.7631 58.487 42.9046 58.7085 45.1938L61.8101 72.2954H65.4285C67.127 72.2215 68.5301 70.8185 68.5301 69.12Z" fill="#9AAA97"/>
<path d="M37.8848 61.2185L40.8386 12.7015L73.4786 14.6954L70.4509 63.2862L37.8848 61.2185Z" fill="url(#paint3_linear_215_11378)"/>
<path d="M56.2715 35.6677C60.7578 35.6677 64.3946 32.0309 64.3946 27.5446C64.3946 23.0584 60.7578 19.4215 56.2715 19.4215C51.7853 19.4215 48.1484 23.0584 48.1484 27.5446C48.1484 32.0309 51.7853 35.6677 56.2715 35.6677Z" fill="#C5D1C3"/>
<path d="M58.1177 29.1692L57.8962 26.7323L54.8685 26.5846L54.3516 28.9477L58.1177 29.1692Z" fill="url(#paint4_linear_215_11378)"/>
<path d="M56.2723 28.1354C57.2323 28.2092 58.0446 28.7262 58.0446 28.7262L57.9708 27.7662L56.0508 27.6185L56.2723 28.1354Z" fill="url(#paint5_linear_215_11378)"/>
<path d="M54.4252 27.3969C54.4252 27.4708 54.4252 27.4708 54.4252 27.3969C55.6068 28.2831 57.0837 28.3569 58.1914 27.6185C59.7422 26.6585 60.1852 24.6646 59.2252 23.1139C58.2652 21.5631 56.2714 21.12 54.7206 22.08C53.1699 23.04 52.7268 25.0339 53.6868 26.5846C53.9083 26.9539 54.1299 27.1754 54.4252 27.3969Z" fill="url(#paint6_radial_215_11378)"/>
<path d="M63.1383 30.4246C62.5475 29.3908 61.4398 28.6523 60.1844 28.5785C59.889 28.5785 59.5198 28.5785 59.2244 28.6523L58.3383 28.8738C56.9352 29.1692 55.4583 29.0954 54.1291 28.5785L53.3167 28.2831C53.0214 28.2092 52.6521 28.1354 52.3567 28.0615C51.1014 27.9877 49.9937 28.5046 49.2552 29.5385C49.0337 29.8338 48.886 30.0554 48.7383 30.3508C50.2891 34.56 54.9414 36.7015 59.1506 35.1508C61.0706 34.4862 62.6214 33.0831 63.5075 31.2369C63.4337 31.0154 63.286 30.72 63.1383 30.4246Z" fill="url(#paint7_radial_215_11378)"/>
<path d="M47.4109 42.6092L47.1155 41.5754C47.1155 41.5015 47.1155 41.4277 47.1893 41.3538L48.0755 40.7631C48.1493 40.6892 48.1493 40.6154 48.1493 40.5415C48.1493 40.4677 48.0755 40.4677 48.0016 40.4677L46.9678 40.3938C46.894 40.3938 46.8201 40.32 46.8201 40.2462L46.5247 39.2862C46.5247 39.2123 46.377 39.1385 46.3032 39.1385C46.2293 39.1385 46.2293 39.2123 46.1555 39.2123L45.7863 40.2462C45.7863 40.32 45.7124 40.3938 45.6386 40.3938L44.6047 40.32C44.5309 40.32 44.457 40.3938 44.457 40.4677C44.457 40.5415 44.457 40.5415 44.5309 40.6154L45.3432 41.28C45.417 41.3538 45.417 41.4277 45.417 41.5015L45.0478 42.4615C45.0478 42.5354 45.0478 42.6831 45.1216 42.6831C45.1955 42.6831 45.2693 42.6831 45.2693 42.6831L46.1555 42.0923C46.2293 42.0185 46.3032 42.0923 46.377 42.0923L47.1893 42.7569C47.2632 42.8308 47.4109 42.8308 47.4109 42.7569C47.4109 42.6831 47.4109 42.6831 47.4109 42.6092Z" fill="#F4CE8B"/>
<path d="M51.9886 42.9046L51.6932 41.8708C51.6932 41.7969 51.6932 41.7231 51.7671 41.6492L52.6532 41.0584C52.7271 40.9846 52.7271 40.9108 52.7271 40.8369C52.7271 40.7631 52.6532 40.7631 52.5794 40.7631L51.5456 40.6892C51.4717 40.6892 51.3979 40.6154 51.3979 40.5415L51.1025 39.5077C51.1025 39.4338 50.9548 39.36 50.8809 39.36C50.8071 39.36 50.8071 39.4338 50.7332 39.4338L50.364 40.3938C50.364 40.4677 50.2902 40.5415 50.2163 40.5415L49.1825 40.6154C49.1086 40.6154 49.0348 40.6892 48.9609 40.7631C48.9609 40.8369 48.9609 40.9108 49.0348 40.9108L49.8471 41.5754C49.9209 41.6492 49.9209 41.7231 49.9209 41.7969L49.5517 42.7569C49.5517 42.8308 49.5517 42.9784 49.6255 42.9784C49.6994 42.9784 49.7732 42.9784 49.7732 42.9784L50.6594 42.3877C50.7332 42.3138 50.8071 42.3877 50.8809 42.3877L51.6932 43.0523C51.7671 43.1261 51.9148 43.1261 51.9148 43.0523C51.9886 42.9784 51.9886 42.9046 51.9886 42.9046Z" fill="#F4CE8B"/>
<path d="M56.5687 43.2L56.3472 42.1661C56.3472 42.0923 56.3472 42.0185 56.421 41.9446L57.3072 41.3538C57.381 41.28 57.381 41.2061 57.381 41.1323C57.381 41.0585 57.3072 41.0584 57.2333 41.0584H56.1256C56.0518 41.0584 55.9779 40.9846 55.9779 40.9108L55.6826 39.8769C55.6826 39.8031 55.5349 39.7292 55.461 39.7292C55.3872 39.7292 55.3872 39.8031 55.3133 39.8031L54.9441 40.7631C54.9441 40.8369 54.8702 40.9108 54.7964 40.9108L53.7626 40.8369C53.6887 40.8369 53.6149 40.9108 53.541 40.9846C53.541 41.0584 53.541 41.0585 53.6149 41.1323L54.4272 41.7969C54.501 41.8708 54.501 41.9446 54.501 42.0185L54.1318 42.9785C54.1318 43.0523 54.1318 43.2 54.2056 43.2C54.2795 43.2 54.3533 43.2 54.3533 43.2L55.2395 42.6092C55.3133 42.5354 55.3872 42.6092 55.461 42.6092L56.2733 43.2738C56.3472 43.3477 56.421 43.3477 56.4949 43.2738C56.5687 43.2738 56.5687 43.2 56.5687 43.2Z" fill="#F4CE8B"/>
<path d="M61.1468 43.4215L60.8515 42.3877C60.8515 42.3138 60.8515 42.24 60.9253 42.1662L61.8114 41.5754C61.8853 41.5015 61.8853 41.4277 61.8853 41.3538C61.8853 41.28 61.8115 41.28 61.7376 41.28L60.7038 41.2062C60.6299 41.2062 60.5561 41.1323 60.5561 41.0585L60.3345 40.0246C60.3345 39.9508 60.1868 39.8769 60.113 39.8769C60.0391 39.8769 60.0391 39.9508 59.9653 39.9508L59.5961 40.9108C59.5961 40.9846 59.5222 41.0585 59.4484 41.0585L58.3407 41.1323C58.2668 41.1323 58.193 41.2062 58.1191 41.28C58.1191 41.3538 58.1191 41.4277 58.193 41.4277L59.0053 42.0923C59.0791 42.1662 59.0791 42.24 59.0791 42.3138L58.7099 43.2738C58.7099 43.3477 58.7099 43.4954 58.7838 43.4954C58.8576 43.4954 58.9315 43.4954 58.9315 43.4954L59.8176 42.9046C59.8915 42.8308 59.9653 42.9046 60.0391 42.9046L60.8515 43.5692C60.9253 43.6431 61.073 43.6431 61.073 43.5692C61.1468 43.5692 61.1468 43.4954 61.1468 43.4215Z" fill="#F4CE8B"/>
<path d="M65.725 43.7169L65.4296 42.6831C65.4296 42.6092 65.4296 42.5354 65.5034 42.4615L66.3896 41.8708C66.4634 41.7969 66.4634 41.7231 66.4634 41.6492C66.4634 41.5754 66.3896 41.5754 66.3157 41.5754L65.2819 41.5015C65.208 41.5015 65.1342 41.4277 65.1342 41.3538L64.8388 40.32C64.8388 40.2461 64.6911 40.1723 64.6173 40.1723C64.5434 40.1723 64.5434 40.2461 64.4696 40.2461L64.1003 41.2061C64.1003 41.28 64.0265 41.3538 63.9526 41.3538L62.9188 41.28C62.845 41.28 62.7711 41.3538 62.6973 41.4277C62.6973 41.5015 62.6973 41.5754 62.7711 41.5754L63.5834 42.24C63.6573 42.3138 63.6573 42.3877 63.6573 42.4615L63.288 43.5692C63.288 43.6431 63.288 43.7908 63.3619 43.7908C63.4357 43.7908 63.5096 43.7908 63.5096 43.7908L64.3957 43.2C64.4696 43.1261 64.5434 43.2 64.6173 43.2L65.4296 43.8646C65.5034 43.9385 65.6511 43.9385 65.6511 43.8646C65.725 43.8646 65.725 43.7908 65.725 43.7169Z" fill="#F4CE8B"/>
<path d="M47.115 48L63.1396 48.96C63.7304 48.96 64.1735 49.4769 64.0996 50.0677L63.9519 52.8C63.9519 53.3908 63.435 53.8338 62.8442 53.76L46.8196 52.8C46.2288 52.8 45.7858 52.2831 45.8596 51.6923L46.0073 48.96C46.0073 48.4431 46.5242 48 47.115 48Z" fill="url(#paint8_linear_215_11378)"/>
<path d="M60.4052 53.76L62.8421 53.9077C63.4329 53.9077 63.9498 53.4646 63.9498 52.9477L64.0975 50.2154C64.0975 49.6246 63.6545 49.1077 63.1375 49.1077L59.8145 48.8123L60.4052 53.76Z" fill="#A84884"/>
<path d="M67.9387 43.5692C67.4218 41.3538 65.2064 39.9508 62.9911 40.32C60.7018 40.6892 59.1511 42.8308 59.3726 45.12L59.8157 48.8123L63.1387 49.0338C63.7295 49.0338 64.1726 49.5508 64.0987 50.1415L63.951 52.8738C63.951 53.4646 63.4341 53.9077 62.8434 53.8338L60.4064 53.6861L61.4403 62.6215L69.268 63.1385V48.7385C68.5295 45.8585 67.9387 43.5692 67.9387 43.5692Z" fill="#C3D2C3"/>
<path d="M53.9814 61.2185C53.1691 61.3662 52.5045 61.6615 51.8398 62.1785L58.3383 62.5477C57.1568 61.3662 55.5322 60.9231 53.9814 61.2185Z" fill="#C3D2C3"/>
<path d="M86.0308 57.8215C84.8492 57.2308 83.5939 56.9354 82.3385 56.9354C81.2308 56.9354 80.1231 57.1569 79.0892 57.6C78.1292 57.1569 77.0954 56.9354 76.0615 56.9354C75.2492 56.9354 74.4369 57.0831 73.6985 57.3785L67.9385 41.3538C67.1262 39.2123 64.8369 38.0308 62.6216 38.6215C60.4062 39.2862 59.0769 41.5015 59.5939 43.7908L66.0923 72.3692L61.8831 63.1385C60.8492 60.8492 58.3385 59.7415 55.9015 60.4062C53.3169 61.1446 51.7662 63.8769 52.5046 66.4615L52.6523 66.9046C55.0892 76.0615 60.0369 84.3323 66.9046 90.7569C71.9262 95.4092 79.0154 97.1077 85.5877 95.1138C93.1939 92.8246 98.5108 86.0308 99.1015 78.1292V78.0554C99.5446 71.9262 98.2154 65.7969 95.3354 60.3323C94.1539 58.1169 91.9385 56.7877 89.4277 56.7877C88.2462 56.8615 87.0646 57.1569 86.0308 57.8215Z" fill="url(#paint9_radial_215_11378)"/>
<path d="M76.3568 69.8585C76.3568 66.3138 75.7661 62.7692 74.5107 59.4462L73.6984 57.3046L67.9384 41.3538C67.1261 39.2123 64.8368 38.0308 62.6215 38.6215C60.4061 39.2862 59.0768 41.5015 59.5938 43.7908L66.0922 72.3692L66.9045 75.9138L69.4892 75.6923C72.8122 75.3969 75.5445 73.0338 76.3568 69.8585Z" fill="url(#paint10_radial_215_11378)"/>
<path d="M89.2068 60.7754C87.8037 58.3385 85.1452 56.8615 82.3391 56.8615C81.2314 56.8615 80.1237 57.0831 79.0898 57.5262C80.3452 58.1169 81.4529 59.0769 82.1175 60.3323C83.7422 63.0646 84.5545 66.1662 84.5545 69.2677V69.7846H91.2745V68.7508C91.3483 65.9446 90.6098 63.2123 89.2068 60.7754Z" fill="url(#paint11_radial_215_11378)"/>
<path d="M76.1346 56.8615C75.3223 56.8615 74.5099 57.0092 73.7715 57.3046L74.5838 59.4462C75.7653 62.7692 76.4299 66.3138 76.4299 69.8585H84.7007V69.3415C84.7007 66.1662 83.8884 63.0646 82.2638 60.4062C81.5253 59.2246 80.4915 58.1908 79.2361 57.6C78.2023 57.0831 77.1684 56.8615 76.1346 56.8615Z" fill="url(#paint12_radial_215_11378)"/>
<path d="M98.5847 69.8585C97.9939 66.5354 96.8863 63.36 95.2616 60.4062C94.0801 58.1908 91.8647 56.8615 89.354 56.8615C88.1724 56.8615 86.9909 57.1569 85.957 57.7477C87.2863 58.4123 88.3201 59.4462 89.0586 60.7015C90.4616 63.1385 91.2739 65.8708 91.2739 68.6769V69.7108L98.5847 69.8585Z" fill="url(#paint13_radial_215_11378)"/>
<path d="M69.1929 44.8985C68.8976 44.0123 68.3806 42.6831 68.233 42.3877C67.3468 41.28 66.0176 40.6892 64.836 41.1323C63.2853 41.6492 62.5468 43.7169 63.2114 45.6369C63.876 47.5569 65.7222 48.7385 67.2729 48.2215C68.5283 47.7785 69.2668 46.3754 69.1929 44.8985Z" fill="url(#paint14_radial_215_11378)"/>
<path d="M69.1929 44.8985C68.8976 44.0123 68.3806 42.6831 68.233 42.3877C67.3468 41.28 66.0176 40.6892 64.836 41.1323C63.2853 41.6492 62.5468 43.7169 63.2114 45.6369C63.876 47.5569 65.7222 48.7385 67.2729 48.2215C68.5283 47.7785 69.2668 46.3754 69.1929 44.8985Z" fill="url(#paint15_radial_215_11378)"/>
<path d="M69.1929 44.8985C68.8976 44.0123 68.3806 42.6831 68.233 42.3877C67.3468 41.28 66.0176 40.6892 64.836 41.1323C63.2853 41.6492 62.5468 43.7169 63.2114 45.6369C63.876 47.5569 65.7222 48.7385 67.2729 48.2215C68.5283 47.7785 69.2668 46.3754 69.1929 44.8985Z" fill="url(#paint16_radial_215_11378)"/>
<path d="M68.0856 47.8523C67.4209 48.2954 66.5348 48.4431 65.6486 48.0738C63.8763 47.4092 62.7686 45.3415 62.9902 43.3477C63.1379 42.4615 63.5809 41.7231 64.1717 41.28C63.5071 41.7231 63.064 42.4615 62.9163 43.4215C62.6209 45.3415 63.8025 47.4831 65.5748 48.1477C66.5348 48.5169 67.4209 48.3692 68.0856 47.8523Z" fill="url(#paint17_radial_215_11378)"/>
<path d="M59.0023 68.9723C59.0761 68.2338 58.9284 67.4215 58.633 66.7569C58.19 65.8708 57.5254 65.1323 56.7869 64.8369C56.6392 64.7631 56.4177 64.6892 56.1961 64.6892C54.4977 64.3938 53.0207 65.7969 52.873 67.8646C53.1684 68.8985 53.5377 69.9323 53.833 70.9662C54.6454 71.9262 55.753 72.4431 56.7869 72.1477C58.0423 71.7785 58.9284 70.5969 59.0023 68.9723Z" fill="url(#paint18_radial_215_11378)"/>
<path d="M59.0023 68.9723C59.0761 68.2338 58.9284 67.4215 58.633 66.7569C58.19 65.8708 57.5254 65.1323 56.7869 64.8369C56.6392 64.7631 56.4177 64.6892 56.1961 64.6892C54.4977 64.3938 53.0207 65.7969 52.873 67.8646C53.1684 68.8985 53.5377 69.9323 53.833 70.9662C54.6454 71.9262 55.753 72.4431 56.7869 72.1477C58.0423 71.7785 58.9284 70.5969 59.0023 68.9723Z" fill="url(#paint19_radial_215_11378)"/>
<path d="M59.0023 68.9723C59.0761 68.2338 58.9284 67.4215 58.633 66.7569C58.19 65.8708 57.5254 65.1323 56.7869 64.8369C56.6392 64.7631 56.4177 64.6892 56.1961 64.6892C54.4977 64.3938 53.0207 65.7969 52.873 67.8646C53.1684 68.8985 53.5377 69.9323 53.833 70.9662C54.6454 71.9262 55.753 72.4431 56.7869 72.1477C58.0423 71.7785 58.9284 70.5969 59.0023 68.9723Z" fill="url(#paint20_radial_215_11378)"/>
<defs>
<linearGradient id="paint0_linear_215_11378" x1="37.5342" y1="70.8189" x2="37.5342" y2="0" gradientUnits="userSpaceOnUse">
<stop stop-color="#D5E0D5"/>
<stop offset="0.52" stop-color="#D2DED2"/>
<stop offset="0.85" stop-color="#CAD7CA"/>
<stop offset="1" stop-color="#C3D2C3"/>
</linearGradient>
<radialGradient id="paint1_radial_215_11378" cx="0" cy="0" r="1" gradientUnits="userSpaceOnUse" gradientTransform="translate(14.0137 2.31272) scale(1.11574)">
<stop stop-color="#14A800"/>
<stop offset="0.33" stop-color="#14A500"/>
<stop offset="0.56" stop-color="#149C00"/>
<stop offset="0.75" stop-color="#138D00"/>
<stop offset="0.92" stop-color="#127800"/>
<stop offset="1" stop-color="#126B00"/>
</radialGradient>
<radialGradient id="paint2_radial_215_11378" cx="0" cy="0" r="1" gradientUnits="userSpaceOnUse" gradientTransform="translate(10.5652 2.31272) scale(1.11574)">
<stop stop-color="#01CDBE"/>
<stop offset="0.26" stop-color="#02CABE"/>
<stop offset="0.44" stop-color="#04C1BE"/>
<stop offset="0.59" stop-color="#08B2BF"/>
<stop offset="0.73" stop-color="#0D9DC0"/>
<stop offset="0.85" stop-color="#1481C1"/>
<stop offset="0.97" stop-color="#1D60C3"/>
<stop offset="1" stop-color="#1F57C3"/>
</radialGradient>
<linearGradient id="paint3_linear_215_11378" x1="55.6578" y1="63.2689" x2="55.6578" y2="12.7052" gradientUnits="userSpaceOnUse">
<stop stop-color="#F2F7F2"/>
<stop offset="0.56" stop-color="#EFF5EF"/>
<stop offset="0.93" stop-color="#E7EDE7"/>
<stop offset="1" stop-color="#E4EBE4"/>
</linearGradient>
<linearGradient id="paint4_linear_215_11378" x1="54.423" y1="27.7367" x2="58.158" y2="27.9684" gradientUnits="userSpaceOnUse">
<stop offset="0.52" stop-color="#AE572A"/>
<stop offset="0.63" stop-color="#A35127"/>
<stop offset="0.82" stop-color="#854121"/>
<stop offset="1" stop-color="#652F19"/>
</linearGradient>
<linearGradient id="paint5_linear_215_11378" x1="57.0224" y1="28.6607" x2="57.0807" y2="27.7201" gradientUnits="userSpaceOnUse">
<stop stop-color="#4B2314" stop-opacity="0"/>
<stop offset="0.66" stop-color="#4B2314" stop-opacity="0.7"/>
<stop offset="1" stop-color="#4B2314"/>
</linearGradient>
<radialGradient id="paint6_radial_215_11378" cx="0" cy="0" r="1" gradientUnits="userSpaceOnUse" gradientTransform="translate(55.796 23.7604) rotate(3.54993) scale(3.88039)">
<stop offset="0.68" stop-color="#AE572A"/>
<stop offset="0.78" stop-color="#994C25"/>
<stop offset="1" stop-color="#652F19"/>
</radialGradient>
<radialGradient id="paint7_radial_215_11378" cx="0" cy="0" r="1" gradientUnits="userSpaceOnUse" gradientTransform="translate(55.8096 28.3449) rotate(3.54993) scale(9.83273 9.83272)">
<stop offset="0.68" stop-color="#4EA42F"/>
<stop offset="0.81" stop-color="#448F28"/>
<stop offset="1" stop-color="#31691B"/>
</radialGradient>
<linearGradient id="paint8_linear_215_11378" x1="45.8953" y1="50.4005" x2="64.041" y2="51.5262" gradientUnits="userSpaceOnUse">
<stop stop-color="#EBB2B2"/>
<stop offset="1" stop-color="#E475B8"/>
</linearGradient>
<radialGradient id="paint9_radial_215_11378" cx="0" cy="0" r="1" gradientUnits="userSpaceOnUse" gradientTransform="translate(84.298 65.3883) scale(26.2019 35.3726)">
<stop offset="0.68" stop-color="#9B8084"/>
<stop offset="0.76" stop-color="#8F766F"/>
<stop offset="0.94" stop-color="#6F5D3A"/>
<stop offset="1" stop-color="#645528"/>
</radialGradient>
<radialGradient id="paint10_radial_215_11378" cx="0" cy="0" r="1" gradientUnits="userSpaceOnUse" gradientTransform="translate(75.9478 70.291) rotate(-11.5346) scale(14.4988 33.3195)">
<stop offset="0.72" stop-color="#645528" stop-opacity="0"/>
<stop offset="1" stop-color="#726140"/>
</radialGradient>
<radialGradient id="paint11_radial_215_11378" cx="0" cy="0" r="1" gradientUnits="userSpaceOnUse" gradientTransform="translate(87.9684 65.9866) rotate(10.4077) scale(8.79463 11.1315)">
<stop offset="0.59" stop-color="#645528" stop-opacity="0"/>
<stop offset="1" stop-color="#726140"/>
</radialGradient>
<radialGradient id="paint12_radial_215_11378" cx="0" cy="0" r="1" gradientUnits="userSpaceOnUse" gradientTransform="translate(81.2433 66.9901) rotate(12.6526) scale(8.41648 10.9161)">
<stop offset="0.59" stop-color="#645528" stop-opacity="0"/>
<stop offset="1" stop-color="#726140"/>
</radialGradient>
<radialGradient id="paint13_radial_215_11378" cx="0" cy="0" r="1" gradientUnits="userSpaceOnUse" gradientTransform="translate(95.1515 66.7792) scale(9.7132 12.1415)">
<stop offset="0.59" stop-color="#645528" stop-opacity="0"/>
<stop offset="1" stop-color="#726140"/>
</radialGradient>
<radialGradient id="paint14_radial_215_11378" cx="0" cy="0" r="1" gradientUnits="userSpaceOnUse" gradientTransform="translate(67.3116 47.2601) scale(7.16854 7.16854)">
<stop offset="0.43" stop-color="#E4EBE4" stop-opacity="0.5"/>
<stop offset="0.55" stop-color="#E1E9E1" stop-opacity="0.41"/>
<stop offset="0.81" stop-color="#DBE4DB" stop-opacity="0.19"/>
<stop offset="1" stop-color="#D5E0D5" stop-opacity="0"/>
</radialGradient>
<radialGradient id="paint15_radial_215_11378" cx="0" cy="0" r="1" gradientUnits="userSpaceOnUse" gradientTransform="translate(67.3825 47.1982) scale(7.29238 7.29238)">
<stop offset="0.43" stop-color="#D5E0D5" stop-opacity="0"/>
<stop offset="0.56" stop-color="#D5E0D5" stop-opacity="0.01"/>
<stop offset="0.64" stop-color="#D6E1D6" stop-opacity="0.05"/>
<stop offset="0.71" stop-color="#D7E1D7" stop-opacity="0.11"/>
<stop offset="0.76" stop-color="#D8E2D8" stop-opacity="0.19"/>
<stop offset="0.82" stop-color="#DAE3DA" stop-opacity="0.31"/>
<stop offset="0.87" stop-color="#DCE5DC" stop-opacity="0.44"/>
<stop offset="0.91" stop-color="#DEE7DE" stop-opacity="0.61"/>
<stop offset="0.96" stop-color="#E1E9E1" stop-opacity="0.79"/>
<stop offset="1" stop-color="#E4EBE4"/>
</radialGradient>
<radialGradient id="paint16_radial_215_11378" cx="0" cy="0" r="1" gradientUnits="userSpaceOnUse" gradientTransform="translate(67.3258 49.0895) scale(3.67901 3.67902)">
<stop offset="0.43" stop-color="#E4EBE4"/>
<stop offset="0.56" stop-color="#E4EBE4" stop-opacity="0.99"/>
<stop offset="0.64" stop-color="#E3EAE3" stop-opacity="0.95"/>
<stop offset="0.71" stop-color="#E2EAE2" stop-opacity="0.89"/>
<stop offset="0.76" stop-color="#E1E9E1" stop-opacity="0.81"/>
<stop offset="0.82" stop-color="#DFE8DF" stop-opacity="0.69"/>
<stop offset="0.87" stop-color="#DDE6DD" stop-opacity="0.56"/>
<stop offset="0.91" stop-color="#DBE4DB" stop-opacity="0.39"/>
<stop offset="0.96" stop-color="#D8E2D8" stop-opacity="0.21"/>
<stop offset="1" stop-color="#D5E0D5" stop-opacity="0"/>
</radialGradient>
<radialGradient id="paint17_radial_215_11378" cx="0" cy="0" r="1" gradientUnits="userSpaceOnUse" gradientTransform="translate(66.0678 47.3368) rotate(80.0182) scale(5.65573 4.66215)">
<stop offset="0.43" stop-color="#E4EBE4"/>
<stop offset="0.49" stop-color="#E3EAE3" stop-opacity="0.91"/>
<stop offset="0.64" stop-color="#DFE8DF" stop-opacity="0.68"/>
<stop offset="0.84" stop-color="#DAE4DA" stop-opacity="0.32"/>
<stop offset="1" stop-color="#D5E0D5" stop-opacity="0"/>
</radialGradient>
<radialGradient id="paint18_radial_215_11378" cx="0" cy="0" r="1" gradientUnits="userSpaceOnUse" gradientTransform="translate(56.8162 71.7437) scale(7.34156 7.34156)">
<stop offset="0.43" stop-color="#E4EBE4" stop-opacity="0.5"/>
<stop offset="0.55" stop-color="#E1E9E1" stop-opacity="0.41"/>
<stop offset="0.81" stop-color="#DBE4DB" stop-opacity="0.19"/>
<stop offset="1" stop-color="#D5E0D5" stop-opacity="0"/>
</radialGradient>
<radialGradient id="paint19_radial_215_11378" cx="0" cy="0" r="1" gradientUnits="userSpaceOnUse" gradientTransform="translate(57.2077 71.1098) scale(7.49967 7.49967)">
<stop offset="0.43" stop-color="#D5E0D5" stop-opacity="0"/>
<stop offset="0.56" stop-color="#D5E0D5" stop-opacity="0.01"/>
<stop offset="0.64" stop-color="#D6E1D6" stop-opacity="0.05"/>
<stop offset="0.71" stop-color="#D7E1D7" stop-opacity="0.11"/>
<stop offset="0.76" stop-color="#D8E2D8" stop-opacity="0.19"/>
<stop offset="0.82" stop-color="#DAE3DA" stop-opacity="0.31"/>
<stop offset="0.87" stop-color="#DCE5DC" stop-opacity="0.44"/>
<stop offset="0.91" stop-color="#DEE7DE" stop-opacity="0.61"/>
<stop offset="0.96" stop-color="#E1E9E1" stop-opacity="0.79"/>
<stop offset="1" stop-color="#E4EBE4"/>
</radialGradient>
<radialGradient id="paint20_radial_215_11378" cx="0" cy="0" r="1" gradientUnits="userSpaceOnUse" gradientTransform="translate(57.7552 73.4389) scale(3.78262)">
<stop offset="0.43" stop-color="#E4EBE4"/>
<stop offset="0.56" stop-color="#E4EBE4" stop-opacity="0.99"/>
<stop offset="0.64" stop-color="#E3EAE3" stop-opacity="0.95"/>
<stop offset="0.71" stop-color="#E2EAE2" stop-opacity="0.89"/>
<stop offset="0.76" stop-color="#E1E9E1" stop-opacity="0.81"/>
<stop offset="0.82" stop-color="#DFE8DF" stop-opacity="0.69"/>
<stop offset="0.87" stop-color="#DDE6DD" stop-opacity="0.56"/>
<stop offset="0.91" stop-color="#DBE4DB" stop-opacity="0.39"/>
<stop offset="0.96" stop-color="#D8E2D8" stop-opacity="0.21"/>
<stop offset="1" stop-color="#D5E0D5" stop-opacity="0"/>
</radialGradient>
</defs>
</svg>
