<svg width="108" height="96" viewBox="0 0 108 96" fill="none" xmlns="http://www.w3.org/2000/svg">
<path d="M82.5772 41.1262C79.9584 37.1386 78.4705 32.4368 78.4705 27.6755V27.616C78.4705 12.3202 71.6856 0.000335693 53.7712 0.000335693C35.8567 0.000335693 29.0719 12.3202 29.0719 27.616V27.6755C29.0719 32.4963 27.584 37.1386 24.9652 41.1262C23.2393 43.6854 22.168 47.8516 22.168 52.5534C22.168 60.4095 25.2628 66.7778 29.0719 66.7778H78.411C82.2201 66.7778 85.3149 60.4095 85.3149 52.5534C85.3744 47.8516 84.2436 43.6854 82.5772 41.1262Z" fill="url(#paint0_radial_215_11393)"/>
<path d="M53.9508 5.89275C65.8541 6.01178 75.4362 15.713 75.4362 27.6162H77.6383C77.6383 14.5226 67.1039 3.86919 54.0103 3.69064C40.8572 3.57161 30.0252 14.0465 29.7871 27.1401H31.9892C32.1678 15.2963 42.0475 5.7142 53.9508 5.89275Z" fill="#00AA00"/>
<path d="M66.1522 55.4704L63.8906 39.401H43.4765L41.2148 55.4704H66.1522Z" fill="url(#paint1_linear_215_11393)"/>
<path d="M53.6538 49.2807C60.0221 49.2807 65.7357 52.5541 65.7357 52.5541L64.8429 46.3048H52.0469L53.6538 49.2807Z" fill="url(#paint2_linear_215_11393)"/>
<path d="M53.6536 49.3391C65.6164 49.3391 75.3175 39.638 75.3175 27.6752C75.3175 27.3776 75.3175 27.1395 75.3175 26.8419L72.5203 26.1277C63.8904 23.8661 57.1055 17.3788 54.3678 9.10603C54.1297 8.45135 53.2369 8.45135 53.0584 9.10603C50.2611 17.3788 43.5358 23.8661 34.9059 26.1277L32.0491 26.9014C32.0491 27.1395 32.0491 27.4371 32.0491 27.6752C31.9896 39.5784 41.6908 49.3391 53.6536 49.3391Z" fill="url(#paint3_radial_215_11393)"/>
<path d="M73.472 36.5431L73.2339 36.9002C73.1744 37.0192 73.0554 37.0788 72.9959 37.1978C72.6388 37.6144 72.2221 37.9715 71.8055 38.2691C71.3889 38.5667 70.9128 38.8047 70.4367 38.9833L70.2581 39.0428C70.1986 39.0428 70.1391 39.1023 70.0796 39.1023C69.9605 39.1023 69.8415 39.1618 69.7225 39.2214C69.4844 39.2809 69.2463 39.2809 68.9487 39.2809H68.7702H68.6512H68.5321H68.1155H67.2823H63.8898H60.4974C58.3548 39.2809 59.188 39.2809 57.4026 39.3404C57.105 38.6262 56.5098 38.1501 55.7956 38.0905C55.6171 38.0905 55.4385 38.0905 55.3195 38.1501C54.6648 38.2691 54.0101 38.2096 53.4745 37.8525C53.0579 37.5549 52.5817 37.4359 52.0461 37.4954C50.9153 37.6144 49.963 38.6262 49.844 39.9356C49.6654 41.602 50.8557 43.0304 52.2841 43.0304C52.7008 43.0304 53.1174 42.9114 53.4745 42.6733C54.0696 42.3162 54.7243 42.2567 55.379 42.3757C55.498 42.3757 55.6171 42.4352 55.7361 42.4352C56.5098 42.4352 57.1645 41.9591 57.4621 41.2449C59.3071 41.2449 58.4143 41.3044 60.5569 41.3044H63.9494H67.3418H68.175H68.5916H68.7107H68.8297H69.0678C69.3654 41.3044 69.7225 41.2449 70.02 41.1854C70.1986 41.1259 70.3176 41.1259 70.4962 41.0664C70.5557 41.0664 70.6747 41.0069 70.7342 41.0069L70.9723 40.9473C71.0318 40.9473 71.0913 40.8878 71.0913 40.8878C72.0436 39.3404 72.8768 37.9715 73.472 36.5431C73.5315 36.4836 73.472 36.5431 73.472 36.5431Z" fill="#DA7928"/>
<path d="M31.9279 27.1997C31.9874 25.4738 32.166 23.8073 32.5826 22.2003H28.8926V33.0323H32.5826C32.166 31.1873 31.9279 29.2233 31.9279 27.1997Z" fill="url(#paint4_linear_215_11393)"/>
<path d="M25.918 27.6163C25.918 30.5922 27.2273 33.0323 28.8938 33.0323V22.2003C27.2868 22.2003 25.918 24.6405 25.918 27.6163Z" fill="#00564E"/>
<path d="M75.3754 27.1997C75.3159 25.4738 75.1373 23.8073 74.7207 22.2003H78.4107V33.0323H74.7207C75.1968 31.1873 75.4349 29.2233 75.3754 27.1997Z" fill="url(#paint5_linear_215_11393)"/>
<path d="M81.386 27.6163C81.386 30.5922 80.0766 33.0323 78.4102 33.0323V22.2003C80.0766 22.2003 81.386 24.6405 81.386 27.6163Z" fill="#00564E"/>
<path d="M55.7351 37.0192C55.5565 37.0192 55.378 37.0192 55.2589 37.0787C54.6042 37.1977 53.9496 37.1382 53.4139 36.8406C52.9973 36.6026 52.5212 36.4835 51.9855 36.5431C50.8547 36.6621 49.9025 37.5548 49.7834 38.6857C49.6049 40.1736 50.7952 41.4234 52.2236 41.4234C52.6402 41.4234 53.0568 41.3044 53.4139 41.1258C54.0091 40.8282 54.6638 40.7687 55.3184 40.8878C55.4375 40.8878 55.5565 40.9473 55.6755 40.9473C56.7468 40.9473 57.6396 40.0545 57.5801 38.9832C57.5205 37.8524 56.7468 37.0787 55.7351 37.0192Z" fill="url(#paint6_radial_215_11393)"/>
<path d="M57.5805 38.865C57.521 37.9127 56.7473 37.0795 55.795 37.0795C55.7355 37.0795 55.7355 37.0795 55.676 37.0795C55.6165 37.0795 55.557 37.0795 55.4975 37.0795C55.4975 37.0795 55.4975 37.0795 55.4379 37.0795C55.3784 37.0795 55.3189 37.0795 55.2594 37.0795C54.3666 37.258 53.7715 38.0317 53.7715 38.9245C53.7715 39.8767 54.4857 40.71 55.4379 40.829H55.4975C55.557 40.829 55.6165 40.829 55.676 40.829C56.7473 40.829 57.6401 39.9363 57.5805 38.865Z" fill="url(#paint7_radial_215_11393)"/>
<path d="M76.4465 30.7107C76.387 31.2463 76.268 31.8415 76.2085 32.3771L76.0894 33.2104L76.0299 33.4484V33.5675V33.6865L75.9109 34.1626C75.6133 35.3529 75.0181 36.5433 74.1254 37.436C73.7088 37.9122 73.2326 38.3288 72.6375 38.6263C72.1018 38.9834 71.5067 39.2215 70.9115 39.4596L70.6734 39.5191C70.6139 39.5191 70.4949 39.5786 70.4354 39.5786C70.2568 39.6381 70.1378 39.6381 69.9592 39.6976C69.6617 39.7572 69.3046 39.8167 69.007 39.8167H68.7689H68.6499H68.5308H68.1142H67.281H63.8886H60.4961C58.2345 39.8167 59.3058 39.8167 57.0442 39.7572C56.568 39.7572 56.2109 39.4001 56.2109 38.9239C56.2109 38.5073 56.568 38.0907 57.0442 38.0907C59.3058 38.0907 58.2345 38.0312 60.4961 38.0312H63.8886H67.281H68.1142H68.5308H68.6499H68.7689H68.9475C69.1855 38.0312 69.4236 37.9717 69.7212 37.9717C69.8402 37.9717 69.9592 37.9121 70.0783 37.9121C70.1378 37.9121 70.1973 37.9122 70.2568 37.8526L70.4354 37.7931C70.9115 37.6741 71.3876 37.436 71.8042 37.198C72.2209 36.9599 72.6375 36.6028 72.9946 36.2457C73.0541 36.1267 73.1731 36.0671 73.2326 35.9481L73.4707 35.6505C73.5302 35.5315 73.5897 35.472 73.7088 35.3529C73.7683 35.2339 73.8278 35.1744 73.8873 35.0554L74.0659 34.6983L74.2444 34.3412C74.2444 34.2816 74.3039 34.2221 74.3039 34.1626L74.3634 33.9841C74.423 33.865 74.4825 33.746 74.4825 33.627L74.6015 33.2699V33.1508V33.0318L74.661 32.7937L74.8396 31.9605C74.9586 31.4249 75.0777 30.8297 75.1967 30.2941C75.2562 29.937 75.6133 29.7584 75.9704 29.8179C76.3275 30.056 76.506 30.3536 76.4465 30.7107Z" fill="#BED2C1"/>
<path d="M90.0758 95.9996C97.2178 95.9996 102.991 90.2265 102.991 83.0845V71.7764C102.991 68.2054 102.039 64.6939 100.075 61.7181C100.075 61.7181 100.075 61.6586 100.015 61.6586C95.5513 54.8737 87.9927 50.8266 79.8985 50.8266C77.6964 50.8266 75.5538 51.1242 73.4707 51.7193L67.7571 53.3263C58.5916 55.8855 48.8309 55.8855 39.6654 53.3263L33.9518 51.7193C31.8687 51.1242 29.6666 50.8266 27.524 50.8266C19.4298 50.8266 11.8712 54.8737 7.40746 61.6586C7.40746 61.6586 7.40746 61.7181 7.34795 61.7181C5.3839 64.6939 4.43164 68.2054 4.43164 71.7764V83.0845C4.43164 90.2265 10.2047 95.9996 17.3467 95.9996H90.0758Z" fill="url(#paint8_radial_215_11393)"/>
<path d="M85.6121 95.9994V69.0385H21.6914V95.9994" fill="url(#paint9_radial_215_11393)"/>
<defs>
<radialGradient id="paint0_radial_215_11393" cx="0" cy="0" r="1" gradientUnits="userSpaceOnUse" gradientTransform="translate(49.8523 22.6972) scale(32.283 39.9114)">
<stop offset="0.6112" stop-color="#00564E"/>
<stop offset="1" stop-color="#003B35"/>
</radialGradient>
<linearGradient id="paint1_linear_215_11393" x1="41.2395" y1="47.458" x2="66.1313" y2="47.458" gradientUnits="userSpaceOnUse">
<stop offset="0.5205" stop-color="#FFCA74"/>
<stop offset="0.634" stop-color="#FEC169"/>
<stop offset="0.8334" stop-color="#FBA84B"/>
<stop offset="1" stop-color="#F88F2E"/>
</linearGradient>
<linearGradient id="paint2_linear_215_11393" x1="58.8704" y1="52.5445" x2="58.8704" y2="46.2737" gradientUnits="userSpaceOnUse">
<stop stop-color="#DA7928" stop-opacity="0"/>
<stop offset="1" stop-color="#DA7928"/>
</linearGradient>
<radialGradient id="paint3_radial_215_11393" cx="0" cy="0" r="1" gradientUnits="userSpaceOnUse" gradientTransform="translate(48.2812 19.369) scale(26.0434 26.0434)">
<stop offset="0.6772" stop-color="#FFCA74"/>
<stop offset="0.7882" stop-color="#FDB95F"/>
<stop offset="1" stop-color="#F88F2E"/>
</radialGradient>
<linearGradient id="paint4_linear_215_11393" x1="30.7683" y1="22.2049" x2="30.7683" y2="33.0492" gradientUnits="userSpaceOnUse">
<stop stop-color="#FF61BE"/>
<stop offset="0.3123" stop-color="#FC60BC"/>
<stop offset="0.5203" stop-color="#F35CB5"/>
<stop offset="0.6979" stop-color="#E455AA"/>
<stop offset="0.8575" stop-color="#CF4C9A"/>
<stop offset="1" stop-color="#B54086"/>
</linearGradient>
<linearGradient id="paint5_linear_215_11393" x1="76.5767" y1="22.2049" x2="76.5767" y2="33.0492" gradientUnits="userSpaceOnUse">
<stop stop-color="#FF61BE"/>
<stop offset="0.3123" stop-color="#FC60BC"/>
<stop offset="0.5203" stop-color="#F35CB5"/>
<stop offset="0.6979" stop-color="#E455AA"/>
<stop offset="0.8575" stop-color="#CF4C9A"/>
<stop offset="1" stop-color="#B54086"/>
</linearGradient>
<radialGradient id="paint6_radial_215_11393" cx="0" cy="0" r="1" gradientUnits="userSpaceOnUse" gradientTransform="translate(51.0396 37.3429) scale(5.00557 5.00557)">
<stop offset="0.367" stop-color="#00AA00"/>
<stop offset="1" stop-color="#006D00"/>
</radialGradient>
<radialGradient id="paint7_radial_215_11393" cx="0" cy="0" r="1" gradientUnits="userSpaceOnUse" gradientTransform="translate(54.3714 38.0058) scale(3.51862 3.51861)">
<stop offset="0.367" stop-color="#00AA00"/>
<stop offset="1" stop-color="#006D00"/>
</radialGradient>
<radialGradient id="paint8_radial_215_11393" cx="0" cy="0" r="1" gradientUnits="userSpaceOnUse" gradientTransform="translate(50.6557 50.9092) scale(65.2833 65.2833)">
<stop offset="0.68" stop-color="#F7B0B2"/>
<stop offset="0.77" stop-color="#E29DA1"/>
<stop offset="0.96" stop-color="#AD6C74"/>
<stop offset="1" stop-color="#A06069"/>
</radialGradient>
<radialGradient id="paint9_radial_215_11393" cx="0" cy="0" r="1" gradientUnits="userSpaceOnUse" gradientTransform="translate(52.7108 67.0867) scale(50.9636 41.836)">
<stop offset="0.68" stop-color="#F7B0B2"/>
<stop offset="0.77" stop-color="#E29DA1"/>
<stop offset="0.96" stop-color="#AD6C74"/>
<stop offset="1" stop-color="#A06069"/>
</radialGradient>
</defs>
</svg>
