<svg width="56" height="56" viewBox="0 0 56 56" fill="none" xmlns="http://www.w3.org/2000/svg">
<path d="M21.3859 23.7053C25.9989 23.7053 29.7385 19.9657 29.7385 15.3527C29.7385 10.7396 25.9989 7 21.3859 7C16.7728 7 13.0332 10.7396 13.0332 15.3527C13.0332 19.9657 16.7728 23.7053 21.3859 23.7053Z" stroke="#001E00" stroke-width="2" stroke-miterlimit="10" stroke-linecap="round" stroke-linejoin="round"/>
<path d="M7 44.3573V43.6613C7 35.7726 13.4965 29.2761 21.3851 29.2761C22.7772 29.2761 24.1694 29.5081 25.5615 29.9722" stroke="#001E00" stroke-width="2" stroke-miterlimit="10" stroke-linecap="round" stroke-linejoin="round"/>
<path fill-rule="evenodd" clip-rule="evenodd" d="M39.4831 29.7364L41.5712 35.0728L47.3717 35.3048C48.7638 35.3048 49.2278 36.9289 48.2998 37.857L43.8914 41.5693L45.2835 47.1377C45.5155 48.2978 44.1234 49.4579 43.1954 48.7619L38.323 45.7456L33.4506 48.7619C32.2905 49.4579 30.8984 48.5298 31.3624 47.1377L32.7545 41.5693L28.3462 37.857C27.1861 37.1609 27.8822 35.5368 29.0422 35.5368L34.8427 35.3048L36.9309 29.9684C37.3949 28.5763 39.019 28.5763 39.4831 29.7364Z" stroke="#001E00" stroke-width="2" stroke-miterlimit="10" stroke-linecap="round" stroke-linejoin="round"/>
</svg>
