<svg width="56" height="56" viewBox="0 0 56 56" fill="none" xmlns="http://www.w3.org/2000/svg">
<path d="M44.9882 48.9993H28.8882C28.3921 49.0406 27.8928 48.9823 27.4196 48.8278C26.9463 48.6732 26.5088 48.4257 26.1327 48.0995C25.7566 47.7734 25.4495 47.3754 25.2295 46.9288C25.0094 46.4823 24.881 45.9962 24.8516 45.4993V36.166C24.881 35.669 25.0094 35.183 25.2295 34.7364C25.4495 34.2899 25.7566 33.8918 26.1327 33.5657C26.5088 33.2396 26.9463 32.992 27.4196 32.8375C27.8928 32.683 28.3921 32.6246 28.8882 32.666H44.9882C45.4831 32.6247 45.9813 32.6831 46.4531 32.8379C46.925 32.9927 47.361 33.2406 47.7352 33.567C48.1095 33.8934 48.4145 34.2916 48.632 34.7381C48.8495 35.1845 48.9752 35.6701 49.0016 36.166V45.4993C48.9069 46.4852 48.4382 47.3974 47.6918 48.0484C46.9453 48.6993 45.9778 49.0396 44.9882 48.9993V48.9993Z" stroke="#001E00" stroke-width="2" stroke-linecap="round" stroke-linejoin="round"/>
<path d="M39.4314 27.9998H34.4147C34.2003 27.9765 33.9834 27.9993 33.7784 28.0665C33.5734 28.1337 33.3852 28.2439 33.2262 28.3896C33.0672 28.5354 32.9411 28.7134 32.8564 28.9117C32.7716 29.11 32.7301 29.3242 32.7347 29.5398V32.6665H41.1114V29.5398C41.116 29.3242 41.0745 29.11 40.9897 28.9117C40.905 28.7134 40.7789 28.5354 40.6199 28.3896C40.4609 28.2439 40.2726 28.1337 40.0677 28.0665C39.8627 27.9993 39.6458 27.9765 39.4314 27.9998V27.9998Z" stroke="#001E00" stroke-width="2" stroke-linecap="round" stroke-linejoin="round"/>
<path d="M24.8516 40.3411H49.0016" stroke="#001E00" stroke-width="2" stroke-linecap="round" stroke-linejoin="round"/>
<path d="M23.4286 19.74C26.9466 19.74 29.7986 16.8881 29.7986 13.37C29.7986 9.85195 26.9466 7 23.4286 7C19.9105 7 17.0586 9.85195 17.0586 13.37C17.0586 16.8881 19.9105 19.74 23.4286 19.74Z" stroke="#001E00" stroke-width="2" stroke-linecap="round" stroke-linejoin="round"/>
<path d="M7 43.0518V40.9518C7 36.62 8.72083 32.4655 11.7839 29.4024C14.847 26.3393 19.0015 24.6185 23.3333 24.6185H23.5433C25.0514 24.6134 26.5524 24.8256 28 25.2485" stroke="#001E00" stroke-width="2" stroke-linecap="round" stroke-linejoin="round"/>
</svg>
