<svg width="108" height="96" viewBox="0 0 108 96" fill="none" xmlns="http://www.w3.org/2000/svg">
<g clip-path="url(#clip0_215_11388)">
<path d="M68.4539 18.7798C66.7466 18.7798 65.302 19.3051 64.1201 20.3557C63.4635 20.881 62.6755 21.275 61.7562 21.275H60.5743C59.3924 21.275 58.6044 20.3557 58.6044 19.3051V3.152C58.6044 2.49537 58.2104 1.83874 57.6851 1.44477L56.3719 0.525482L56.5032 1.05079H13.1656C11.9836 1.05079 11.0644 1.97007 11.0644 3.152V46.4896C11.0644 46.6209 11.0644 46.7523 11.0644 46.7523H10.933L10.5391 47.1462L11.9836 48.0655C12.2463 48.3282 12.7716 48.4595 13.1656 48.4595H29.1874C30.3693 48.4595 31.1573 47.5402 31.1573 46.4896V45.3077C31.1573 44.3884 30.8946 43.6004 30.238 42.9438C29.1874 41.7619 28.6621 40.3173 28.6621 38.6101C28.7934 35.4582 31.4199 32.8317 34.5717 32.8317C37.9862 32.8317 40.7441 35.4582 40.7441 38.8727C40.7441 40.4486 40.2188 41.8932 39.1681 42.9438C38.6428 43.6004 37.7236 47.2776 37.7236 47.2776L39.1681 48.1969C39.4308 48.4595 39.8248 48.5908 40.2188 48.5908H56.2405C57.4225 48.5908 58.3418 47.6716 58.3418 46.4896V30.4678C58.3418 29.2859 59.261 28.4979 60.3116 28.4979H61.4936C62.4129 28.4979 63.2008 28.7606 63.8575 29.4172C64.9081 30.3365 66.3527 30.9931 67.9286 30.9931C71.343 30.9931 73.9696 28.2353 73.9696 24.8208C74.2322 21.5377 71.6057 18.9111 68.4539 18.7798Z" fill="url(#paint0_linear_215_11388)"/>
<path d="M67.0086 17.8606C65.3014 17.7293 63.8568 18.3859 62.6749 19.4365C62.0183 19.9618 61.2303 20.3558 60.311 20.3558H59.1291C57.9471 20.3558 57.1592 19.4365 57.1592 18.3859V2.10149C57.1592 0.919558 56.2399 0.000274658 55.058 0.000274658H11.7204C10.5384 0.000274658 9.61914 0.919558 9.61914 2.10149V45.4391C9.61914 46.621 10.5384 47.5403 11.7204 47.5403H27.7421C28.9241 47.5403 29.712 46.621 29.712 45.5704V44.3885C29.712 43.4692 29.4494 42.6813 28.7927 42.0246C27.7421 40.8427 27.2168 39.3981 27.2168 37.6909C27.3482 34.539 29.9747 31.9125 33.1265 31.9125C36.541 31.9125 39.2988 34.539 39.2988 37.9535C39.2988 39.5294 38.7735 40.974 37.7229 42.0246C37.1976 42.6813 36.8036 43.4692 36.8036 44.3885V45.5704C36.8036 46.7524 37.7229 47.5403 38.7735 47.5403H56.8965V29.4173C56.8965 28.2354 57.8158 27.4474 58.8664 27.4474H60.0484C60.9676 27.4474 61.7556 27.7101 62.4122 28.3667C63.4628 29.286 64.9074 29.9426 66.4833 29.9426C69.8978 29.9426 72.5243 27.1848 72.5243 23.7703C72.787 20.4871 70.1605 17.992 67.0086 17.8606Z" fill="#F2F7F2"/>
<path d="M105.093 1.44446L103.78 0.525177L103.517 1.05048V1.18181H60.5738C59.3919 1.18181 58.4726 2.10109 58.4726 3.28303V19.3048C58.4726 20.4867 59.3918 21.2747 60.4425 21.2747H61.6244C62.5437 21.2747 63.3316 21.012 63.9883 20.3554C65.1702 19.3048 66.6148 18.7795 68.322 18.7795C71.4738 18.9108 74.1004 21.5374 74.1004 24.6892C74.1004 28.1037 71.4739 30.8615 68.0594 30.8615C66.4835 30.8615 65.0389 30.3362 63.9883 29.2856C63.3316 28.7603 62.5437 28.3663 61.6244 28.3663H60.4425C59.2605 28.3663 58.4726 29.2856 58.4726 30.3362V46.358C58.4726 46.4893 58.4726 46.6206 58.4726 46.752L57.9473 47.1459L59.3919 48.1966C59.7858 48.4592 60.1798 48.5905 60.5738 48.5905H76.5956C77.7775 48.5905 78.5655 49.5098 78.5655 50.5604V51.7424C78.5655 52.6616 78.3028 53.4496 77.6462 54.1062C76.7269 55.1568 76.0703 56.6014 76.0703 58.1773C76.0703 61.5918 78.8281 64.2183 82.2426 64.2183C85.3944 64.2183 88.0209 61.5918 88.1523 58.44C88.1523 56.7327 87.627 55.2882 86.5763 54.1062C86.051 53.4496 85.6571 52.6616 85.6571 51.7424V50.5604C85.6571 49.3785 86.5764 48.5905 87.627 48.5905H103.649C104.831 48.5905 105.75 47.6712 105.75 46.4893V3.1517C106.013 2.36374 105.75 1.83844 105.093 1.44446Z" fill="url(#paint1_linear_215_11388)"/>
<path d="M86.9697 57.5207C87.101 55.8135 86.4444 54.3689 85.3938 53.187C84.8685 52.5303 84.4745 51.7424 84.4745 50.8231V49.6412C84.4745 48.4592 85.3938 47.6713 86.4444 47.6713H102.466C103.648 47.6713 104.567 46.752 104.567 45.5701V2.23244C104.567 1.05051 103.648 0.131226 102.466 0.131226H59.1286C57.9466 0.131226 57.0273 1.05051 57.0273 2.23244V18.2542C57.0273 19.4362 57.9466 20.2241 58.9972 20.2241H60.1792C61.0985 20.2241 61.8864 19.9615 62.543 19.3048C63.725 18.2542 65.1696 17.7289 66.8768 17.7289C70.0286 17.8602 72.6552 20.4868 72.6552 23.6386C72.6552 27.0531 70.0286 29.8109 66.6142 29.8109C65.0382 29.8109 63.5937 29.2856 62.543 28.235C61.8864 27.7097 61.0985 27.3157 60.1792 27.3157H58.9972C57.8153 27.3157 57.0273 28.235 57.0273 29.2856V47.4086H75.1504C76.3323 47.4086 77.1202 48.3279 77.1202 49.3785V50.5604C77.1202 51.4797 76.8576 52.2677 76.201 52.9243C75.2817 53.9749 74.625 55.4195 74.625 56.9954C74.625 60.4099 77.3829 63.0364 80.7974 63.0364C84.2118 63.1678 86.8384 60.6726 86.9697 57.5207Z" fill="#C3D2C3"/>
<path d="M105.094 48.8528L103.912 48.0648L103.781 48.3275V48.5901H87.8906C86.7086 48.5901 85.9207 49.5094 85.9207 50.56V51.742C85.9207 52.6612 86.1833 53.4492 86.84 54.1058C87.8906 55.2878 88.4159 56.7323 88.4159 58.4396C88.2845 61.5914 85.658 64.2179 82.3749 64.2179C78.9604 64.2179 76.2025 61.5914 76.2025 58.1769C76.2025 56.601 76.7278 55.1564 77.7784 54.1058C78.3037 53.4492 78.6977 52.6612 78.6977 51.742V50.56C78.6977 49.3781 77.7784 48.5901 76.7278 48.5901H60.5747C59.3928 48.5901 58.4735 49.5094 58.4735 50.6913V66.7131C58.4735 67.8951 57.5542 68.683 56.5036 68.683H55.3217C54.4024 68.683 53.6144 68.4204 52.9578 67.7637C51.9072 66.8444 50.4626 66.1878 48.8867 66.1878C45.4722 66.1878 42.8457 68.9457 42.8457 72.3601C42.8457 73.6734 43.371 74.9867 44.0276 75.906V76.2999L45.2096 77.0879C46.1289 77.7445 47.3108 78.2698 48.6241 78.2698C50.3313 78.2698 51.7759 77.7445 52.9578 76.6939C53.6144 76.1686 54.4024 75.7746 55.3217 75.7746H56.5036C57.6855 75.7746 58.4735 76.6939 58.4735 77.7445V93.7663C58.4735 93.8976 58.4735 94.029 58.4735 94.1603L57.9482 94.2916L59.3928 95.3422C59.7868 95.6049 60.1808 95.7362 60.5747 95.7362H103.912C105.094 95.7362 106.014 94.8169 106.014 93.635V50.2974C106.014 49.9034 105.62 49.2468 105.094 48.8528Z" fill="url(#paint2_linear_215_11388)"/>
<path d="M47.3096 77.3511C49.0168 77.4825 50.4614 76.8258 51.6434 75.7752C52.3 75.2499 53.0879 74.8559 54.0072 74.8559H55.1892C56.3711 74.8559 57.1591 75.7752 57.1591 76.8258V92.8476C57.1591 94.0296 58.0783 94.9488 59.2603 94.9488H102.598C103.78 94.9488 104.699 94.0296 104.699 92.8476V49.51C104.699 48.3281 103.78 47.4088 102.598 47.4088H86.5761C85.3942 47.4088 84.6062 48.3281 84.6062 49.3787V50.5606C84.6062 51.4799 84.8689 52.2679 85.5255 52.9245C86.5761 54.1064 87.1014 55.551 87.1014 57.2582C86.9701 60.4101 84.3436 63.0366 81.1917 63.0366C77.7773 63.0366 75.0194 60.4101 75.0194 56.9956C75.0194 55.4197 75.5447 53.9751 76.5953 52.9245C77.1206 52.2679 77.5146 51.4799 77.5146 50.5606V49.3787C77.5146 48.1967 76.5953 47.4088 75.5447 47.4088H57.1591V65.5318C57.1591 66.7137 56.2398 67.5017 55.1892 67.5017H54.0072C53.0879 67.5017 52.3 67.239 51.6434 66.5824C50.5928 65.6631 49.1482 65.0065 47.5723 65.0065C44.1578 65.0065 41.5312 67.7643 41.5312 71.1788C41.5312 74.5933 44.0264 77.2198 47.3096 77.3511Z" fill="#F2F7F2"/>
<path d="M48.4913 66.1894C50.0672 66.1894 51.5118 66.7147 52.5624 67.7653C53.219 68.2906 54.007 68.6846 54.9263 68.6846H56.1082C57.2901 68.6846 58.0781 67.7653 58.0781 66.7147V50.5615C58.0781 50.0362 57.8154 49.5109 57.5528 49.2483V49.117L56.5022 48.0663L56.3708 48.4603C56.2395 48.4603 56.2395 48.4603 56.1082 48.4603H39.9551C38.7732 48.4603 37.9852 47.541 37.9852 46.4904V45.3085C37.9852 44.3892 38.2478 43.6013 38.9045 42.9446C39.8238 41.894 40.4804 40.4494 40.4804 38.8735C40.4804 35.459 37.7225 32.8325 34.3081 32.8325C31.1562 32.8325 28.5297 35.459 28.3984 38.6109C28.3984 40.3181 28.9237 41.7627 29.9743 42.9446C30.4996 43.6013 30.8936 44.3892 30.8936 45.3085V46.4904C30.8936 47.6724 29.9743 48.4603 28.9237 48.4603H12.6393C11.4573 48.4603 10.538 49.3796 10.538 50.5615V93.8992C10.538 94.1618 10.538 94.2931 10.6694 94.4245H10.2754L11.1947 95.3437C11.5887 95.7377 12.114 96.0004 12.6393 96.0004H55.9769C57.1588 96.0004 58.0781 95.0811 58.0781 93.8992V77.8774C58.0781 76.6954 57.1588 75.9075 56.1082 75.9075H54.9263C54.007 75.9075 53.219 76.1701 52.5624 76.8268C51.3805 77.8774 49.9359 78.4027 48.2286 78.4027C45.0768 78.2714 42.4503 75.6448 42.4503 72.493C42.4503 68.9472 45.0768 66.1894 48.4913 66.1894Z" fill="url(#paint3_linear_215_11388)"/>
<path d="M27.3482 37.6912C27.2168 39.3985 27.8735 40.8431 28.9241 42.025C29.4494 42.6816 29.8434 43.4696 29.8434 44.3889V45.5708C29.8434 46.7527 28.9241 47.5407 27.8735 47.5407H11.7204C10.5384 47.5407 9.61914 48.46 9.61914 49.6419V92.9795C9.61914 94.1615 10.5384 95.0807 11.7204 95.0807H55.058C56.2399 95.0807 57.1592 94.1615 57.1592 92.9795V76.9577C57.1592 75.7758 56.2399 74.9879 55.1893 74.9879H54.0074C53.0881 74.9879 52.3001 75.2505 51.6435 75.9071C50.4616 76.9578 49.017 77.4831 47.3097 77.4831C44.1579 77.3517 41.5314 74.7252 41.5314 71.5734C41.5314 68.1589 44.1579 65.4011 47.5724 65.4011C49.1483 65.4011 50.5929 65.9264 51.6435 66.977C52.3001 67.5023 53.0881 67.8963 54.0074 67.8963H55.1893C56.3712 67.8963 57.1592 66.977 57.1592 65.9264V47.5407H39.0362C37.8543 47.5407 37.0663 46.6214 37.0663 45.5708V44.3889C37.0663 43.4696 37.3289 42.6816 37.9856 42.025C38.9049 40.9744 39.5615 39.5298 39.5615 37.9539C39.5615 34.5394 36.8036 31.9129 33.3892 31.9129C30.106 31.9129 27.4795 34.5394 27.3482 37.6912Z" fill="url(#paint4_linear_215_11388)"/>
<path d="M77.6462 68.6815C75.6763 68.8128 74.1004 70.5201 73.9691 72.4899L73.8378 76.2984L73.7064 72.4899C73.5751 70.5201 71.9992 68.8128 70.0293 68.6815C71.9992 68.5502 73.5751 66.8429 73.7064 64.873L73.8378 61.5899L73.9691 64.873C74.1004 66.8429 75.6763 68.4188 77.6462 68.6815Z" fill="#FCCD81"/>
<path d="M6.2043 56.6008C5.02237 56.7321 3.97176 57.6514 3.97176 58.9647L3.84043 61.3285L3.70911 58.9647C3.70911 57.7827 2.6585 56.7321 1.47656 56.6008C2.6585 56.4695 3.70911 55.4189 3.70911 54.2369L3.84043 52.1357L3.97176 54.2369C3.97176 55.4189 5.02237 56.4695 6.2043 56.6008Z" fill="#FCCD81"/>
<path d="M32.0763 83.2616C29.1871 83.5243 26.9546 85.8881 26.8233 88.7773L26.5606 94.293L26.298 88.7773C26.1666 85.8881 23.9341 83.5243 21.0449 83.2616C23.9341 82.999 26.1666 80.6351 26.298 77.7459L26.5606 72.8868L26.8233 77.7459C26.9546 80.6351 29.1871 82.999 32.0763 83.2616Z" fill="#FCCD81"/>
</g>
<defs>
<linearGradient id="paint0_linear_215_11388" x1="42.422" y1="48.543" x2="42.422" y2="0.533231" gradientUnits="userSpaceOnUse">
<stop stop-color="#9AAA97"/>
<stop offset="1" stop-color="#C3D2C3"/>
</linearGradient>
<linearGradient id="paint1_linear_215_11388" x1="81.9882" y1="64.2048" x2="81.9882" y2="0.484204" gradientUnits="userSpaceOnUse">
<stop stop-color="#9AAA97"/>
<stop offset="1" stop-color="#C3D2C3"/>
</linearGradient>
<linearGradient id="paint2_linear_215_11388" x1="74.4831" y1="96.0184" x2="74.4831" y2="48.0362" gradientUnits="userSpaceOnUse">
<stop stop-color="#9AAA97"/>
<stop offset="1" stop-color="#C3D2C3"/>
</linearGradient>
<linearGradient id="paint3_linear_215_11388" x1="10.2833" y1="64.4495" x2="58.1212" y2="64.4495" gradientUnits="userSpaceOnUse">
<stop stop-color="#1F57C3"/>
<stop offset="1" stop-color="#BDA1E7"/>
</linearGradient>
<linearGradient id="paint4_linear_215_11388" x1="10.574" y1="47.869" x2="56.8468" y2="94.1418" gradientUnits="userSpaceOnUse">
<stop stop-color="#F7B0B2"/>
<stop offset="0.0376216" stop-color="#F5AFB4"/>
<stop offset="1" stop-color="#BDA1E7"/>
</linearGradient>
<clipPath id="clip0_215_11388">
<rect width="107.077" height="96" fill="white"/>
</clipPath>
</defs>
</svg>
