<svg width="108" height="96" viewBox="0 0 108 96" fill="none" xmlns="http://www.w3.org/2000/svg">
<g clip-path="url(#clip0_215_11383)">
<path d="M89.429 23.3354H82.709V24.6646H89.429V23.3354Z" fill="#D5E0D5"/>
<path d="M76.8005 19.0523C76.7267 19.0523 76.6528 19.1262 76.6528 19.2L76.3574 23.8523H77.3174L77.022 19.2C76.9482 19.1262 76.8743 19.0523 76.8005 19.0523Z" fill="#D5E0D5"/>
<path d="M88.3947 24.6646H81.084V82.2646H88.3947V24.6646Z" fill="url(#paint0_linear_215_11383)"/>
<path d="M60.4802 15.1385H50.3633V82.2646H60.4802V15.1385Z" fill="url(#paint1_linear_215_11383)"/>
<path d="M73.1091 28.5785H58.3398V82.2646H73.1091V28.5785Z" fill="#E4EBE4"/>
<path d="M58.3398 28.5784L60.2598 26.6584H69.6383V28.5784H58.3398Z" fill="#F2F7F2"/>
<path d="M69.6367 28.5784V26.6584H68.8982L68.0859 28.5784V82.2646H73.1075V28.5784H69.6367Z" fill="#C3D2C3"/>
<path d="M81.8952 24.6646H69.6367V82.2646H81.8952V24.6646Z" fill="#E4EBE4"/>
<path d="M50.9543 15.1385H38.0312V82.2646H50.9543V15.1385Z" fill="#E4EBE4"/>
<path d="M58.0437 41.7969H43.8652V82.2646H58.0437V41.7969Z" fill="#C3D2C3"/>
<path d="M82.7077 23.3354H68.8984V24.6646H82.7077V23.3354Z" fill="#F2F7F2"/>
<path d="M67.2011 40.2462H45.1211V82.2646H67.2011V40.2462Z" fill="#E4EBE4"/>
<path d="M50.3644 46.1539H47.4844V42.7569H50.3644V46.1539ZM55.1644 42.7569H52.2844V46.1539H55.1644V42.7569ZM59.9644 42.7569H57.0844V46.1539H59.9644V42.7569ZM64.7644 42.7569H61.8844V46.1539H64.7644V42.7569Z" fill="url(#paint2_linear_215_11383)"/>
<path d="M50.3644 48.7385H47.4844V52.1354H50.3644V48.7385ZM55.1644 48.7385H52.2844V52.1354H55.1644V48.7385ZM59.9644 48.7385H57.0844V52.1354H59.9644V48.7385ZM64.7644 48.7385H61.8844V52.1354H64.7644V48.7385Z" fill="url(#paint3_linear_215_11383)"/>
<path d="M50.3644 54.72H47.4844V58.1169H50.3644V54.72ZM55.1644 54.72H52.2844V58.1169H55.1644V54.72ZM59.9644 54.72H57.0844V58.1169H59.9644V54.72ZM64.7644 54.72H61.8844V58.1169H64.7644V54.72Z" fill="url(#paint4_linear_215_11383)"/>
<path d="M50.3644 60.7015H47.4844V64.0985H50.3644V60.7015ZM55.1644 60.7015H52.2844V64.0985H55.1644V60.7015ZM59.9644 60.7015H57.0844V64.0985H59.9644V60.7015ZM64.7644 60.7015H61.8844V64.0985H64.7644V60.7015Z" fill="url(#paint5_linear_215_11383)"/>
<path d="M50.3644 66.6831H47.4844V70.08H50.3644V66.6831ZM55.1644 66.6831H52.2844V70.08H55.1644V66.6831ZM59.9644 66.6831H57.0844V70.08H59.9644V66.6831ZM64.7644 66.6831H61.8844V70.08H64.7644V66.6831Z" fill="url(#paint6_linear_215_11383)"/>
<path d="M50.3644 72.6646H47.4844V76.0615H50.3644V72.6646ZM55.1644 72.6646H52.2844V76.0615H55.1644V72.6646ZM59.9644 72.6646H57.0844V76.0615H59.9644V72.6646ZM64.7644 72.6646H61.8844V76.0615H64.7644V72.6646Z" fill="url(#paint7_linear_215_11383)"/>
<path d="M77.6873 40.2462H67.2012V82.2646H77.6873V40.2462Z" fill="url(#paint8_linear_215_11383)"/>
<path d="M67.2011 37.8831H45.1211V40.2461H67.2011V37.8831Z" fill="#F2F7F2"/>
<path d="M77.6873 37.8831H67.2012V40.2461H77.6873V37.8831Z" fill="#D5E0D5"/>
<path d="M43.3487 17.0585H40.8379V20.5292H43.3487V17.0585Z" fill="url(#paint9_linear_215_11383)"/>
<path d="M45.8604 17.0585H43.3496V20.5292H45.8604V17.0585Z" fill="url(#paint10_linear_215_11383)"/>
<path d="M48.3701 17.0585H45.8594V20.5292H48.3701V17.0585Z" fill="url(#paint11_linear_215_11383)"/>
<path d="M50.9541 17.0585H48.4434V20.5292H50.9541V17.0585Z" fill="url(#paint12_linear_215_11383)"/>
<path d="M52.9489 17.0585H50.9551V20.5292H52.9489V17.0585Z" fill="url(#paint13_linear_215_11383)"/>
<path d="M54.9431 17.0585H52.9492V20.5292H54.9431V17.0585Z" fill="url(#paint14_linear_215_11383)"/>
<path d="M56.9372 17.0585H54.9434V20.5292H56.9372V17.0585Z" fill="url(#paint15_linear_215_11383)"/>
<path d="M58.9314 17.0585H56.9375V20.5292H58.9314V17.0585Z" fill="url(#paint16_linear_215_11383)"/>
<path d="M50.9547 15.1385L49.2562 13.6615C47.927 12.5538 46.3024 11.9631 44.5301 11.9631C42.8316 11.9631 41.1332 12.5538 39.8039 13.6615L38.1055 15.1385H50.9547Z" fill="#F2F7F2"/>
<path d="M60.5539 15.1385L58.8554 13.6615C57.5262 12.5538 55.9016 11.9631 54.1293 11.9631H44.5293C46.2278 11.9631 47.9262 12.5538 49.2554 13.6615L50.9539 15.1385H60.5539Z" fill="#D5E0D5"/>
<path d="M72.2219 11.4462C70.1542 11.4462 68.5296 9.82154 68.5296 7.75384C68.5296 5.98154 69.785 4.50461 71.4835 4.13538C69.1204 3.02769 66.3881 4.06154 65.2804 6.35077C64.1727 8.64 65.2066 11.4462 67.4958 12.5538C69.4158 13.44 71.705 12.9969 73.0342 11.3723C72.7389 11.3723 72.4435 11.4462 72.2219 11.4462Z" fill="#FCCD81"/>
<path d="M76.8006 19.3477C77.2492 19.3477 77.6129 18.984 77.6129 18.5354C77.6129 18.0868 77.2492 17.7231 76.8006 17.7231C76.352 17.7231 75.9883 18.0868 75.9883 18.5354C75.9883 18.984 76.352 19.3477 76.8006 19.3477Z" fill="url(#paint17_radial_215_11383)"/>
<path d="M37.5878 19.6431C32.8616 19.6431 28.8001 22.3015 26.8063 26.0677C25.4032 28.7261 23.2616 30.8677 20.677 32.2708C17.2063 34.1169 15.0647 37.8092 15.1386 41.7231C15.2124 47.2615 19.717 51.84 25.2555 52.0615C30.6463 52.2831 35.3724 48.3692 36.1109 42.9785C36.6278 43.0523 37.0709 43.0523 37.5878 43.0523C44.3078 43.0523 49.6986 37.8092 49.6986 31.3108C49.6986 24.8123 44.3078 19.6431 37.5878 19.6431Z" fill="black" stroke="black" stroke-width="0.235" stroke-linejoin="round"/>
<path d="M49.2571 32.4184C49.2571 32.4184 49.2571 32.3446 49.2571 32.4184C48.9617 29.3169 46.3771 26.9538 43.2756 26.9538H41.5033C36.7033 26.9538 32.6417 30.5723 31.9771 35.2984V38.4C31.9771 41.7969 31.2386 45.12 29.7617 48.2215L33.6017 50.5108C35.0786 51.3969 36.9986 50.88 37.8848 49.4031C37.9586 49.3292 37.9586 49.2554 38.0325 49.1815L39.3617 46.4492C39.8786 45.3415 40.8386 44.4554 41.9463 44.0123C46.8202 42.1661 49.7002 37.44 49.2571 32.4184Z" fill="url(#paint18_radial_215_11383)"/>
<path d="M49.2571 32.4184C49.2571 32.4184 49.2571 32.3446 49.2571 32.4184C48.9617 29.3169 46.3771 26.9538 43.2756 26.9538H41.5033C36.7033 26.9538 32.6417 30.5723 31.9771 35.2984V38.4C31.9771 41.7969 31.2386 45.12 29.7617 48.2215L33.6017 50.5108C35.0786 51.3969 36.9986 50.88 37.8848 49.4031C37.9586 49.3292 37.9586 49.2554 38.0325 49.1815L39.3617 46.4492C39.8786 45.3415 40.8386 44.4554 41.9463 44.0123C46.8202 42.1661 49.7002 37.44 49.2571 32.4184Z" fill="url(#paint19_linear_215_11383)"/>
<path d="M45.6381 60.48C45.6381 69.0461 44.6042 77.5384 42.6104 85.8092L41.6504 89.5754" stroke="black" stroke-width="0.235" stroke-linejoin="round"/>
<path d="M20.5307 60.48C20.5307 69.0461 19.4968 77.5384 17.503 85.8092L16.543 89.5754" stroke="black" stroke-width="0.235" stroke-linejoin="round"/>
<path d="M10.487 78.0554L35.0777 80.9354V89.5754H9.45312" fill="white"/>
<path d="M10.487 78.0554L35.0777 80.9354V89.5754H9.45312" stroke="black" stroke-width="0.235" stroke-linejoin="round"/>
<path d="M29.6133 85.2923C29.6133 83.003 31.3856 81.1569 33.601 81.0092C34.7825 80.9354 35.9641 80.8615 37.1456 80.8615C42.4625 80.8615 47.7056 82.3384 52.2841 85.1446C53.1702 85.7354 53.6133 86.7692 53.3179 87.803C53.0225 88.8369 52.0625 89.5754 50.9548 89.5754H33.8964C31.5333 89.5754 29.6133 87.6554 29.6133 85.2923Z" fill="white" stroke="black" stroke-width="0.235" stroke-linejoin="round"/>
<path d="M48.4442 89.5753C49.5519 89.5753 50.3642 88.6892 50.3642 87.5077C50.3642 86.843 49.995 86.1784 49.4042 85.7353C49.1827 85.5877 48.9611 85.44 48.6658 85.2923C45.6381 83.4461 42.1673 82.4123 38.6227 82.1907H38.5488" stroke="black" stroke-width="0.235" stroke-linejoin="round"/>
<path d="M45.7116 89.5753C46.5978 89.5753 47.3362 88.8369 47.3362 87.8769C47.3362 87.2861 47.0408 86.7692 46.5978 86.4738C43.6439 84.48 40.0993 83.4461 36.5547 83.4461" stroke="black" stroke-width="0.235" stroke-linejoin="round"/>
<path d="M35.5957 84.9969C38.4019 84.9969 41.1342 85.8092 43.4972 87.2123C43.8665 87.4338 44.088 87.8769 44.088 88.2461C44.088 88.9107 43.4972 89.5015 42.8326 89.5015" stroke="black" stroke-width="0.235" stroke-linejoin="round"/>
<path d="M0.517735 77.3907L8.05004 54.8677C9.60081 50.2154 13.4408 46.7446 18.2408 45.6369C21.7116 44.8246 25.4039 45.4154 28.4316 47.2615L28.8747 47.5569C29.687 48.0738 30.647 48.4431 31.5331 48.7384H31.607C34.1916 49.5507 36.9977 49.4769 39.5823 48.5169C40.4685 48.1477 41.4285 48 42.3885 48.0738C45.49 48.2215 48.0747 50.2892 48.9608 53.2431L56.3454 78.7938V78.9415C58.4131 78.4984 60.5546 78.2769 62.6223 78.2769H66.9054V89.8707H9.45312C6.49927 89.8707 3.69312 88.4677 1.92081 86.1046C0.0746583 83.5938 -0.516111 80.3446 0.517735 77.3907Z" fill="url(#paint20_radial_215_11383)"/>
<path d="M17.502 86.0308C19.4958 77.76 20.5296 69.2677 20.5296 60.7015H45.6373C45.6373 69.2677 44.6035 77.76 42.6096 86.0308H17.502Z" fill="url(#paint21_radial_215_11383)"/>
<path d="M45.6373 81.8215L52.8743 79.7538C53.982 79.3846 55.1635 79.0892 56.345 78.8677C58.4127 78.4246 60.5543 78.2031 62.622 78.2031H66.905V89.7969H43.0527L45.6373 81.8215Z" fill="url(#paint22_radial_215_11383)"/>
<path d="M42.6094 86.0308C44.6032 77.76 45.6371 69.2677 45.6371 60.7015H51.1017L56.2709 78.72V78.8677C58.3386 78.4246 60.4801 78.2031 62.5478 78.2031H66.8309V89.7969H47.7786L42.6094 86.0308Z" fill="url(#paint23_radial_215_11383)"/>
<path d="M42.6104 86.0308L41.6504 89.7969" stroke="black" stroke-width="0.235" stroke-linejoin="round"/>
<path d="M10.487 78.2769L34.93 81.5261L35.0777 89.7969H9.45312L10.487 78.2769Z" fill="url(#paint24_radial_215_11383)"/>
<path d="M31.0898 85.6616C31.0898 83.52 32.7883 81.6739 34.9298 81.5262C36.0375 81.4523 37.2191 81.3785 38.3268 81.3785C43.496 81.3785 48.5175 82.7816 52.9483 85.5139C53.6129 85.9569 54.056 86.6954 54.056 87.5077C54.056 88.7631 52.9483 89.7969 51.6929 89.7969H35.2991C33.0098 89.7969 31.0898 87.9508 31.0898 85.6616Z" fill="url(#paint25_radial_215_11383)"/>
<path d="M51.2496 87.8769C51.2496 87.2123 50.9542 86.5477 50.3635 86.1784L50.0681 86.0307C47.0404 84.1107 43.5696 83.0031 40.025 82.7815H39.9512L41.2066 81.6C45.4158 82.0431 49.4773 83.3723 53.0958 85.5877C53.7604 86.0307 54.2035 86.7692 54.2035 87.5815C54.2035 88.8369 53.0958 89.8707 51.8404 89.8707H49.4035C50.3635 89.7969 51.2496 88.9107 51.2496 87.8769Z" fill="url(#paint26_radial_215_11383)"/>
<path d="M49.3309 89.7969C50.3648 89.7969 51.2509 88.9108 51.2509 87.8031C51.2509 87.1385 50.9555 86.4739 50.3648 86.1046L50.0694 85.9569C47.0417 84.0369 43.5709 82.9292 40.0263 82.7077H39.9525L37.8848 83.8892C41.3555 83.8892 44.6786 84.9231 47.5586 86.7692C48.0017 87.0646 48.2971 87.5815 48.2971 88.1723C48.2971 89.0585 47.6325 89.7969 46.7463 89.7969H49.3309Z" fill="url(#paint27_radial_215_11383)"/>
<path d="M45.1204 88.6154C45.1204 88.1723 44.8988 87.8031 44.5296 87.5815C42.2404 86.1785 39.5819 85.44 36.8496 85.44L37.7358 83.9631C41.2065 83.9631 44.5296 84.9969 47.4096 86.8431C47.8527 87.1385 48.1481 87.6554 48.1481 88.2462C48.1481 89.1323 47.4835 89.8708 46.5973 89.8708H43.865C44.6035 89.7969 45.1204 89.28 45.1204 88.6154Z" fill="url(#paint28_radial_215_11383)"/>
<path d="M76.5785 92.3077H42.3877C40.9846 92.3077 39.877 91.2 39.877 89.7969H76.5785V92.3077Z" fill="url(#paint29_linear_215_11383)"/>
<path d="M63.5816 92.3077H100.505C101.022 92.3077 101.465 91.9385 101.612 91.4215L107.077 62.0308C107.225 61.44 106.782 60.8492 106.191 60.7754C106.117 60.7754 106.043 60.7754 105.969 60.7754H69.0462C68.5293 60.7754 68.0862 61.1446 67.9386 61.6615L62.4739 91.0523C62.3262 91.6431 62.7693 92.2339 63.3601 92.3077C63.4339 92.3077 63.5078 92.3077 63.5816 92.3077Z" fill="url(#paint30_linear_215_11383)"/>
<path d="M61.1445 91.0523L66.6091 61.6615C66.683 61.1446 67.1999 60.7754 67.7168 60.7754H68.9722C68.4553 60.7754 68.0122 61.1446 67.8645 61.6615L62.3999 91.0523C62.2522 91.6431 62.6953 92.2339 63.2861 92.3077C63.3599 92.3077 63.4338 92.3077 63.5076 92.3077H62.2522C61.6615 92.3077 61.1445 91.7908 61.1445 91.2C61.1445 91.2 61.1445 91.1262 61.1445 91.0523Z" fill="#9AAA97"/>
</g>
<defs>
<linearGradient id="paint0_linear_215_11383" x1="84.7341" y1="82.2427" x2="84.7341" y2="24.6656" gradientUnits="userSpaceOnUse">
<stop stop-color="#9AAA97"/>
<stop offset="0.3" stop-color="#9EAE9B"/>
<stop offset="0.61" stop-color="#AAB9A8"/>
<stop offset="0.92" stop-color="#BDCCBC"/>
<stop offset="1" stop-color="#C3D2C3"/>
</linearGradient>
<linearGradient id="paint1_linear_215_11383" x1="50.3896" y1="48.6901" x2="60.5173" y2="48.6901" gradientUnits="userSpaceOnUse">
<stop stop-color="#9AAA97"/>
<stop offset="0.3" stop-color="#9EAE9B"/>
<stop offset="0.61" stop-color="#AAB9A8"/>
<stop offset="0.92" stop-color="#BDCCBC"/>
<stop offset="1" stop-color="#C3D2C3"/>
</linearGradient>
<linearGradient id="paint2_linear_215_11383" x1="56.1355" y1="46.1807" x2="56.1355" y2="42.7843" gradientUnits="userSpaceOnUse">
<stop stop-color="#C3D2C3"/>
<stop offset="0.47" stop-color="#C7D5C7"/>
<stop offset="0.96" stop-color="#D4DFD4"/>
<stop offset="1" stop-color="#D5E0D5"/>
</linearGradient>
<linearGradient id="paint3_linear_215_11383" x1="56.1355" y1="52.1589" x2="56.1355" y2="48.7625" gradientUnits="userSpaceOnUse">
<stop stop-color="#C3D2C3"/>
<stop offset="0.47" stop-color="#C7D5C7"/>
<stop offset="0.96" stop-color="#D4DFD4"/>
<stop offset="1" stop-color="#D5E0D5"/>
</linearGradient>
<linearGradient id="paint4_linear_215_11383" x1="56.1343" y1="58.1355" x2="56.1343" y2="54.739" gradientUnits="userSpaceOnUse">
<stop stop-color="#C3D2C3"/>
<stop offset="0.47" stop-color="#C7D5C7"/>
<stop offset="0.96" stop-color="#D4DFD4"/>
<stop offset="1" stop-color="#D5E0D5"/>
</linearGradient>
<linearGradient id="paint5_linear_215_11383" x1="56.1355" y1="64.1154" x2="56.1355" y2="60.719" gradientUnits="userSpaceOnUse">
<stop stop-color="#C3D2C3"/>
<stop offset="0.47" stop-color="#C7D5C7"/>
<stop offset="0.96" stop-color="#D4DFD4"/>
<stop offset="1" stop-color="#D5E0D5"/>
</linearGradient>
<linearGradient id="paint6_linear_215_11383" x1="56.1355" y1="70.0945" x2="56.1355" y2="66.6972" gradientUnits="userSpaceOnUse">
<stop stop-color="#C3D2C3"/>
<stop offset="0.47" stop-color="#C7D5C7"/>
<stop offset="0.96" stop-color="#D4DFD4"/>
<stop offset="1" stop-color="#D5E0D5"/>
</linearGradient>
<linearGradient id="paint7_linear_215_11383" x1="56.1355" y1="76.0728" x2="56.1355" y2="72.6755" gradientUnits="userSpaceOnUse">
<stop stop-color="#C3D2C3"/>
<stop offset="0.47" stop-color="#C7D5C7"/>
<stop offset="0.96" stop-color="#D4DFD4"/>
<stop offset="1" stop-color="#D5E0D5"/>
</linearGradient>
<linearGradient id="paint8_linear_215_11383" x1="72.4378" y1="82.2419" x2="72.4378" y2="40.2329" gradientUnits="userSpaceOnUse">
<stop stop-color="#9AAA97"/>
<stop offset="0.3" stop-color="#9EAE9B"/>
<stop offset="0.61" stop-color="#AAB9A8"/>
<stop offset="0.92" stop-color="#BDCCBC"/>
<stop offset="1" stop-color="#C3D2C3"/>
</linearGradient>
<linearGradient id="paint9_linear_215_11383" x1="40.601" y1="17.3098" x2="43.5844" y2="20.2923" gradientUnits="userSpaceOnUse">
<stop offset="0.4" stop-color="#C3D2C3"/>
<stop offset="0.66" stop-color="#CEDACE"/>
<stop offset="1" stop-color="#E4EBE4"/>
</linearGradient>
<linearGradient id="paint10_linear_215_11383" x1="43.131" y1="17.3095" x2="46.1141" y2="20.2926" gradientUnits="userSpaceOnUse">
<stop offset="0.4" stop-color="#C3D2C3"/>
<stop offset="0.66" stop-color="#CEDACE"/>
<stop offset="1" stop-color="#E4EBE4"/>
</linearGradient>
<linearGradient id="paint11_linear_215_11383" x1="45.659" y1="17.3095" x2="48.642" y2="20.2926" gradientUnits="userSpaceOnUse">
<stop offset="0.4" stop-color="#C3D2C3"/>
<stop offset="0.66" stop-color="#CEDACE"/>
<stop offset="1" stop-color="#E4EBE4"/>
</linearGradient>
<linearGradient id="paint12_linear_215_11383" x1="48.1881" y1="17.3095" x2="51.1711" y2="20.2926" gradientUnits="userSpaceOnUse">
<stop offset="0.4" stop-color="#C3D2C3"/>
<stop offset="0.66" stop-color="#CEDACE"/>
<stop offset="1" stop-color="#E4EBE4"/>
</linearGradient>
<linearGradient id="paint13_linear_215_11383" x1="50.586" y1="17.4414" x2="53.3053" y2="20.1607" gradientUnits="userSpaceOnUse">
<stop offset="0.4" stop-color="#9AAA97"/>
<stop offset="0.6" stop-color="#A4B4A2"/>
<stop offset="0.97" stop-color="#C0CFC0"/>
<stop offset="1" stop-color="#C3D2C3"/>
</linearGradient>
<linearGradient id="paint14_linear_215_11383" x1="52.5877" y1="17.4414" x2="55.3071" y2="20.1607" gradientUnits="userSpaceOnUse">
<stop offset="0.4" stop-color="#9AAA97"/>
<stop offset="0.6" stop-color="#A4B4A2"/>
<stop offset="0.97" stop-color="#C0CFC0"/>
<stop offset="1" stop-color="#C3D2C3"/>
</linearGradient>
<linearGradient id="paint15_linear_215_11383" x1="54.5886" y1="17.4414" x2="57.3079" y2="20.1607" gradientUnits="userSpaceOnUse">
<stop offset="0.4" stop-color="#9AAA97"/>
<stop offset="0.6" stop-color="#A4B4A2"/>
<stop offset="0.97" stop-color="#C0CFC0"/>
<stop offset="1" stop-color="#C3D2C3"/>
</linearGradient>
<linearGradient id="paint16_linear_215_11383" x1="56.5901" y1="17.4417" x2="59.3097" y2="20.1605" gradientUnits="userSpaceOnUse">
<stop offset="0.4" stop-color="#9AAA97"/>
<stop offset="0.6" stop-color="#A4B4A2"/>
<stop offset="0.97" stop-color="#C0CFC0"/>
<stop offset="1" stop-color="#C3D2C3"/>
</linearGradient>
<radialGradient id="paint17_radial_215_11383" cx="0" cy="0" r="1" gradientUnits="userSpaceOnUse" gradientTransform="translate(76.2532 17.9882) scale(1.27355 1.27355)">
<stop offset="0.76" stop-color="#D5E0D5"/>
<stop offset="1" stop-color="#C3D2C3"/>
</radialGradient>
<radialGradient id="paint18_radial_215_11383" cx="0" cy="0" r="1" gradientUnits="userSpaceOnUse" gradientTransform="translate(45.3229 33.636) scale(13.1892 13.1892)">
<stop offset="0.76" stop-color="#F7B0B2"/>
<stop offset="0.83" stop-color="#E29DA1"/>
<stop offset="0.97" stop-color="#AD6C74"/>
<stop offset="1" stop-color="#A06069"/>
</radialGradient>
<linearGradient id="paint19_linear_215_11383" x1="25.641" y1="33.083" x2="43.5939" y2="40.6271" gradientUnits="userSpaceOnUse">
<stop offset="0.5" stop-color="#F7B0B2" stop-opacity="0"/>
<stop offset="0.56" stop-color="#F7B0B2" stop-opacity="0.08"/>
<stop offset="0.67" stop-color="#F7B0B2" stop-opacity="0.3"/>
<stop offset="0.84" stop-color="#F7B0B2" stop-opacity="0.65"/>
<stop offset="1" stop-color="#F7B0B2"/>
</linearGradient>
<radialGradient id="paint20_radial_215_11383" cx="0" cy="0" r="1" gradientUnits="userSpaceOnUse" gradientTransform="translate(37.6651 60.6764) rotate(180) scale(28.4129 28.4129)">
<stop offset="0.76" stop-color="#14A800"/>
<stop offset="0.85" stop-color="#139300"/>
<stop offset="1" stop-color="#126B00"/>
</radialGradient>
<radialGradient id="paint21_radial_215_11383" cx="0" cy="0" r="1" gradientUnits="userSpaceOnUse" gradientTransform="translate(34.3774 64.1856) rotate(-116.822) scale(21.2077 17.8792)">
<stop offset="0.76" stop-color="#126B00" stop-opacity="0"/>
<stop offset="0.81" stop-color="#126B00" stop-opacity="0.19"/>
<stop offset="0.93" stop-color="#126B00" stop-opacity="0.69"/>
<stop offset="1" stop-color="#126B00"/>
</radialGradient>
<radialGradient id="paint22_radial_215_11383" cx="0" cy="0" r="1" gradientUnits="userSpaceOnUse" gradientTransform="translate(56.3229 78.0326) rotate(180) scale(19.0712 11.252)">
<stop offset="0.46" stop-color="#14A800"/>
<stop offset="0.56" stop-color="#299B13"/>
<stop offset="0.76" stop-color="#5E7842"/>
<stop offset="1" stop-color="#A84884"/>
</radialGradient>
<radialGradient id="paint23_radial_215_11383" cx="0" cy="0" r="1" gradientUnits="userSpaceOnUse" gradientTransform="translate(59.917 64.2117) rotate(-116.822) scale(21.9578 18.5116)">
<stop offset="0.76" stop-color="#126B00" stop-opacity="0"/>
<stop offset="0.81" stop-color="#126B00" stop-opacity="0.19"/>
<stop offset="0.93" stop-color="#126B00" stop-opacity="0.69"/>
<stop offset="1" stop-color="#126B00"/>
</radialGradient>
<radialGradient id="paint24_radial_215_11383" cx="0" cy="0" r="1" gradientUnits="userSpaceOnUse" gradientTransform="translate(28.6096 78.5483) rotate(180) scale(15.8084 11.0659)">
<stop offset="0.46" stop-color="#14A800"/>
<stop offset="0.67" stop-color="#139300"/>
<stop offset="1" stop-color="#126B00"/>
</radialGradient>
<radialGradient id="paint25_radial_215_11383" cx="0" cy="0" r="1" gradientUnits="userSpaceOnUse" gradientTransform="translate(46.4687 82.6214) rotate(180) scale(15.143 9.84292)">
<stop offset="0.54" stop-color="#F7B0B2"/>
<stop offset="0.63" stop-color="#EFA9AB"/>
<stop offset="0.76" stop-color="#DA9599"/>
<stop offset="0.91" stop-color="#B6757C"/>
<stop offset="1" stop-color="#A06069"/>
</radialGradient>
<radialGradient id="paint26_radial_215_11383" cx="0" cy="0" r="1" gradientUnits="userSpaceOnUse" gradientTransform="translate(43.3736 88.4413) rotate(-173.089) scale(8.81593 5.614)">
<stop offset="0.61" stop-color="#A06069"/>
<stop offset="0.62" stop-color="#A06069" stop-opacity="0.97"/>
<stop offset="0.8" stop-color="#A06069" stop-opacity="0.45"/>
<stop offset="0.94" stop-color="#A06069" stop-opacity="0.13"/>
<stop offset="1" stop-color="#A06069" stop-opacity="0"/>
</radialGradient>
<radialGradient id="paint27_radial_215_11383" cx="0" cy="0" r="1" gradientUnits="userSpaceOnUse" gradientTransform="translate(42.8347 88.2904) rotate(-165.548) scale(7.39531 4.65578)">
<stop offset="0.54" stop-color="#A06069"/>
<stop offset="0.62" stop-color="#A06069" stop-opacity="0.87"/>
<stop offset="0.78" stop-color="#A06069" stop-opacity="0.53"/>
<stop offset="1" stop-color="#A06069" stop-opacity="0"/>
</radialGradient>
<radialGradient id="paint28_radial_215_11383" cx="0" cy="0" r="1" gradientUnits="userSpaceOnUse" gradientTransform="translate(40.5909 90.1256) rotate(-166.661) scale(7.08224 4.89371)">
<stop offset="0.45" stop-color="#A06069"/>
<stop offset="0.54" stop-color="#A06069" stop-opacity="0.87"/>
<stop offset="0.73" stop-color="#A06069" stop-opacity="0.53"/>
<stop offset="1" stop-color="#A06069" stop-opacity="0"/>
</radialGradient>
<linearGradient id="paint29_linear_215_11383" x1="58.2437" y1="92.3418" x2="58.2437" y2="87.4627" gradientUnits="userSpaceOnUse">
<stop stop-color="#9AAA97"/>
<stop offset="0.93" stop-color="#E4EBE4"/>
</linearGradient>
<linearGradient id="paint30_linear_215_11383" x1="84.7584" y1="92.3426" x2="84.7584" y2="60.725" gradientUnits="userSpaceOnUse">
<stop stop-color="#9AAA97"/>
<stop offset="0.93" stop-color="#E4EBE4"/>
</linearGradient>
<clipPath id="clip0_215_11383">
<rect width="107.077" height="96" fill="white"/>
</clipPath>
</defs>
</svg>
